<svg width="163" height="160" viewBox="0 0 163 160" fill="none" xmlns="http://www.w3.org/2000/svg">
<ellipse cx="81.52" cy="80" rx="80.8" ry="80" fill="url(#paint0_radial_5_5245)"/>
<ellipse cx="81.5189" cy="80.4286" rx="76.1829" ry="75.4286" fill="url(#paint1_radial_5_5245)"/>
<ellipse cx="81.5189" cy="79.9999" rx="51.9429" ry="51.4286" fill="url(#paint2_radial_5_5245)"/>
<path d="M81.5188 121.137L82.2963 123.506H84.8122L82.7768 124.97L83.5542 127.339L81.5188 125.875L79.4834 127.339L80.2609 124.97L78.2255 123.506H80.7414L81.5188 121.137Z" fill="#FAFAFA"/>
<path d="M71.1326 119.708L71.9101 122.077H74.426L72.3906 123.541L73.168 125.91L71.1326 124.446L69.0972 125.91L69.8746 123.541L67.8392 122.077H70.3551L71.1326 119.708Z" fill="#FAFAFA"/>
<path d="M60.7429 115.708L61.5203 118.077H64.0363L62.0008 119.541L62.7783 121.91L60.7429 120.446L58.7075 121.91L59.4849 119.541L57.4495 118.077H59.9654L60.7429 115.708Z" fill="#FAFAFA"/>
<path d="M91.9088 119.708L92.6863 122.077H95.2022L93.1668 123.541L93.9443 125.91L91.9088 124.446L89.8734 125.91L90.6509 123.541L88.6155 122.077H91.1314L91.9088 119.708Z" fill="#FAFAFA"/>
<path d="M102.297 115.708L103.074 118.077H105.59L103.555 119.541L104.332 121.91L102.297 120.446L100.261 121.91L101.039 119.541L99.0035 118.077H101.519L102.297 115.708Z" fill="#FAFAFA"/>
<path d="M81.5188 38.8633L82.2963 36.4942H84.8122L82.7768 35.03L83.5542 32.6609L81.5188 34.1251L79.4834 32.6609L80.2609 35.03L78.2255 36.4942H80.7414L81.5188 38.8633Z" fill="#FAFAFA"/>
<path d="M71.1326 40.292L71.9101 37.9229H74.426L72.3906 36.4587L73.168 34.0896L71.1326 35.5538L69.0972 34.0896L69.8746 36.4587L67.8392 37.9229H70.3551L71.1326 40.292Z" fill="#FAFAFA"/>
<path d="M60.7429 44.292L61.5203 41.9229H64.0363L62.0008 40.4587L62.7783 38.0896L60.7429 39.5538L58.7075 38.0896L59.4849 40.4587L57.4495 41.9229H59.9654L60.7429 44.292Z" fill="#FAFAFA"/>
<path d="M91.9088 40.292L92.6863 37.9229H95.2022L93.1668 36.4587L93.9443 34.0896L91.9088 35.5538L89.8734 34.0896L90.6509 36.4587L88.6155 37.9229H91.1314L91.9088 40.292Z" fill="#FAFAFA"/>
<path d="M102.297 44.292L103.074 41.9229H105.59L103.555 40.4587L104.332 38.0896L102.297 39.5538L100.261 38.0896L101.039 40.4587L99.0035 41.9229H101.519L102.297 44.292Z" fill="#FAFAFA"/>
<path d="M16.736 71L18.7768 77.2188H25.3811L20.0381 81.0623L22.079 87.2812L16.736 83.4377L11.393 87.2812L13.4339 81.0623L8.09089 77.2188H14.6952L16.736 71Z" fill="url(#paint3_radial_5_5245)"/>
<path d="M146.016 71L148.057 77.2188H154.661L149.318 81.0623L151.359 87.2812L146.016 83.4377L140.673 87.2812L142.714 81.0623L137.371 77.2188H143.975L146.016 71Z" fill="url(#paint4_radial_5_5245)"/>
<path d="M68.6416 83.0708C66.6473 83.0708 64.8789 82.7299 63.3362 82.0481C61.8022 81.3578 60.5919 80.4075 59.7056 79.1973C58.8192 77.987 58.3675 76.5936 58.3505 75.0169H64.7169C64.7425 75.5879 64.9257 76.095 65.2666 76.5382C65.6076 76.9728 66.072 77.3137 66.6601 77.5609C67.2482 77.8081 67.9172 77.9316 68.6672 77.9316C69.4172 77.9316 70.0777 77.7995 70.6487 77.5353C71.2283 77.2626 71.68 76.8919 72.0039 76.4231C72.3277 75.9458 72.4854 75.4004 72.4769 74.7868C72.4854 74.1731 72.3107 73.6277 71.9527 73.1504C71.5948 72.6731 71.0877 72.3024 70.4314 72.0382C69.7837 71.774 69.0166 71.6419 68.1303 71.6419H65.5862V67.1419H68.1303C68.9059 67.1419 69.5877 67.014 70.1757 66.7583C70.7723 66.5027 71.2368 66.1447 71.5692 65.6845C71.9016 65.2157 72.0635 64.6788 72.055 64.0737C72.0635 63.4856 71.9229 62.97 71.6331 62.5268C71.3519 62.0751 70.9556 61.7257 70.4442 61.4785C69.9414 61.2314 69.3576 61.1078 68.6928 61.1078C67.9939 61.1078 67.359 61.2314 66.788 61.4785C66.2255 61.7257 65.778 62.0751 65.4456 62.5268C65.1132 62.9785 64.9385 63.5027 64.9215 64.0993H58.8746C58.8916 62.5396 59.3263 61.1674 60.1786 59.9828C61.0309 58.7896 62.1899 57.8564 63.6559 57.1831C65.1303 56.5098 66.8093 56.1731 68.6928 56.1731C70.5678 56.1731 72.2169 56.5012 73.6402 57.1575C75.0635 57.8137 76.1715 58.7086 76.9641 59.8422C77.7567 60.9672 78.153 62.2413 78.153 63.6646C78.1615 65.139 77.68 66.3535 76.7084 67.3081C75.7453 68.2626 74.5053 68.8507 72.9882 69.0723V69.2768C75.0166 69.5154 76.5465 70.1717 77.5777 71.2456C78.6175 72.3194 79.1331 73.6618 79.1246 75.2725C79.1246 76.7896 78.6772 78.1362 77.7823 79.3123C76.8959 80.4799 75.6601 81.4004 74.0749 82.0737C72.4982 82.7385 70.6871 83.0708 68.6416 83.0708ZM93.5227 83.3521C91.2386 83.3521 89.2698 82.8109 87.6164 81.7285C85.963 80.6376 84.6889 79.0737 83.794 77.0368C82.8991 74.9913 82.4559 72.5325 82.4644 69.6603C82.473 66.7882 82.9204 64.3507 83.8068 62.3478C84.7017 60.3365 85.9715 58.8066 87.6164 57.7583C89.2698 56.7015 91.2386 56.1731 93.5227 56.1731C95.8068 56.1731 97.7755 56.7015 99.4289 57.7583C101.091 58.8066 102.369 60.3365 103.264 62.3478C104.159 64.3592 104.602 66.7967 104.594 69.6603C104.594 72.541 104.146 75.0041 103.251 77.0495C102.356 79.095 101.082 80.6589 99.4289 81.7413C97.784 82.8152 95.8153 83.3521 93.5227 83.3521ZM93.5227 78.1745C94.8863 78.1745 95.99 77.4799 96.8338 76.0907C97.6775 74.693 98.0951 72.5495 98.0866 69.6603C98.0866 67.7683 97.8948 66.2086 97.5113 64.9814C97.1278 63.7456 96.5951 62.8251 95.9133 62.22C95.2315 61.6149 94.4346 61.3123 93.5227 61.3123C92.1676 61.3123 91.0724 61.9984 90.2372 63.3706C89.4019 64.7342 88.9801 66.8308 88.9715 69.6603C88.963 71.5779 89.1463 73.1674 89.5213 74.4288C89.9048 75.6902 90.4417 76.6319 91.1321 77.2541C91.8224 77.8677 92.6193 78.1745 93.5227 78.1745ZM62.6363 104.713H57.9957V91.622H62.6747C63.9914 91.622 65.125 91.8841 66.0752 92.4082C67.0255 92.9281 67.7563 93.676 68.2677 94.6518C68.7833 95.6277 69.0411 96.7953 69.0411 98.1547C69.0411 99.5183 68.7833 100.69 68.2677 101.67C67.7563 102.65 67.0213 103.403 66.0625 103.927C65.1079 104.451 63.9659 104.713 62.6363 104.713ZM60.7635 102.341H62.5213C63.3394 102.341 64.0277 102.197 64.5859 101.907C65.1484 101.613 65.5703 101.159 65.8515 100.545C66.137 99.9274 66.2798 99.1305 66.2798 98.1547C66.2798 97.1873 66.137 96.3968 65.8515 95.7832C65.5703 95.1696 65.1505 94.7179 64.5923 94.4281C64.034 94.1383 63.3458 93.9934 62.5277 93.9934H60.7635V102.341ZM72.6095 104.713H69.6436L74.1628 91.622H77.7295L82.2423 104.713H79.2764L75.9973 94.6135H75.895L72.6095 104.713ZM72.4241 99.5673H79.4298V101.728H72.4241V99.5673ZM81.715 91.622H84.8151L87.8002 97.2598H87.928L90.9131 91.622H94.0133L89.2384 100.085V104.713H86.4898V100.085L81.715 91.622ZM102.627 95.3869C102.575 94.8713 102.356 94.4707 101.968 94.1852C101.58 93.8997 101.054 93.7569 100.389 93.7569C99.9376 93.7569 99.5562 93.8208 99.2452 93.9487C98.9341 94.0723 98.6954 94.2449 98.5293 94.4664C98.3673 94.688 98.2864 94.9395 98.2864 95.2207C98.2778 95.4551 98.3268 95.6596 98.4334 95.8343C98.5442 96.0091 98.6954 96.1603 98.8872 96.2882C99.079 96.4118 99.3006 96.5204 99.552 96.6142C99.8034 96.7037 100.072 96.7804 100.357 96.8443L101.534 97.1255C102.105 97.2534 102.629 97.4238 103.106 97.6369C103.583 97.85 103.997 98.112 104.346 98.4231C104.695 98.7342 104.966 99.1007 105.158 99.5225C105.354 99.9444 105.454 100.428 105.458 100.974C105.454 101.775 105.249 102.469 104.845 103.057C104.444 103.641 103.864 104.095 103.106 104.419C102.352 104.738 101.442 104.898 100.377 104.898C99.3197 104.898 98.3993 104.736 97.6152 104.412C96.8354 104.089 96.226 103.609 95.7871 102.974C95.3524 102.335 95.1244 101.545 95.1031 100.603H97.7814C97.8112 101.042 97.9369 101.408 98.1585 101.702C98.3844 101.992 98.6848 102.211 99.0598 102.361C99.4391 102.506 99.8673 102.578 100.345 102.578C100.813 102.578 101.22 102.51 101.565 102.373C101.915 102.237 102.186 102.047 102.377 101.805C102.569 101.562 102.665 101.282 102.665 100.967C102.665 100.673 102.578 100.426 102.403 100.226C102.232 100.025 101.981 99.8549 101.649 99.7143C101.32 99.5737 100.918 99.4458 100.44 99.3308L99.015 98.9728C97.9114 98.7044 97.0399 98.2846 96.4007 97.7136C95.7615 97.1426 95.444 96.3734 95.4483 95.4061C95.444 94.6135 95.655 93.921 96.0811 93.3287C96.5115 92.7363 97.1017 92.274 97.8517 91.9416C98.6017 91.6092 99.454 91.443 100.409 91.443C101.38 91.443 102.228 91.6092 102.953 91.9416C103.681 92.274 104.248 92.7363 104.653 93.3287C105.058 93.921 105.266 94.6071 105.279 95.3869H102.627Z" fill="#FAFAFA"/>
<path d="M19.2143 47.0193L20.8834 44.5893L31.1119 46.7172L31.2002 46.5888L25.4423 37.9522L27.1115 35.5222L38.1425 42.95L36.8336 44.8555L29.2552 39.7525L29.1854 39.8542L34.6505 47.9649L33.6726 49.3887L24.0294 47.326L23.9595 47.4277L31.5541 52.5416L30.2453 54.4471L19.2143 47.0193Z" fill="#2D3748"/>
<path d="M45.5915 27.9083C46.5089 29.009 47.0867 30.1216 47.3251 31.246C47.5641 32.3644 47.4998 33.4231 47.1322 34.4222C46.7679 35.4186 46.1349 36.2851 45.2331 37.0219C44.3313 37.7587 43.3501 38.2109 42.2896 38.3786C41.2297 38.5402 40.1662 38.4001 39.0992 37.9583C38.0328 37.5103 37.0423 36.7377 36.1277 35.6403C35.2103 34.5395 34.6321 33.43 34.3931 32.3116C34.1548 31.1872 34.2177 30.1268 34.582 29.1304C34.9496 28.1314 35.5843 27.2634 36.4861 26.5267C37.3879 25.7899 38.3673 25.339 39.4245 25.1741C40.485 25.0064 41.5485 25.1465 42.6149 25.5944C43.6819 26.0362 44.6741 26.8075 45.5915 27.9083ZM43.7158 29.4407C43.07 28.6659 42.4031 28.1124 41.7149 27.7802C41.0273 27.442 40.3553 27.3119 39.699 27.3898C39.0398 27.4644 38.4303 27.7303 37.8705 28.1877C37.3106 28.6451 36.9312 29.1871 36.7321 29.8137C36.5302 30.437 36.5301 31.1163 36.7316 31.8517C36.9336 32.5809 37.3576 33.333 38.0033 34.1078C38.6491 34.8827 39.3158 35.4392 40.0034 35.7774C40.6915 36.1095 41.3652 36.2383 42.0243 36.1637C42.6807 36.0859 43.2888 35.8182 43.8487 35.3608C44.4085 34.9034 44.7894 34.3631 44.9912 33.7398C45.1903 33.1132 45.1888 32.4353 44.9867 31.706C44.7852 30.9706 44.3616 30.2155 43.7158 29.4407Z" fill="#2D3748"/>
<path d="M57.0718 14.7588L62.6648 26.8242L60.7139 27.7108L51.1994 22.0848L51.0989 22.1305L54.9086 30.3488L52.7153 31.3455L47.1223 19.2801L49.085 18.3882L58.5964 24.0228L58.7028 23.9744L54.8903 15.7501L57.0718 14.7588Z" fill="#2D3748"/>
<path d="M66.2961 25.8023L63.6666 12.7662L72.1517 11.0884L72.551 13.068L66.4292 14.2785L67.1431 17.8176L72.8253 16.694L73.2246 18.6736L67.5424 19.7972L68.2601 23.3554L74.4328 22.1349L74.8321 24.1145L66.2961 25.8023Z" fill="#2D3748"/>
<path d="M77.7537 10.4194L80.4732 10.5036L83.5393 16.4844L83.6691 16.4884L87.1064 10.7089L89.8259 10.7931L84.7274 18.9769L84.5709 23.9355L82.1694 23.8612L82.326 18.9026L77.7537 10.4194Z" fill="#2D3748"/>
<path d="M92.3278 24.6263L95.898 11.8158L100.809 13.1575C101.736 13.4107 102.466 13.7672 102.998 14.2268C103.536 14.6834 103.888 15.2035 104.053 15.7872C104.223 16.372 104.219 16.9814 104.043 17.6152C103.897 18.1365 103.673 18.5553 103.369 18.8717C103.066 19.1839 102.714 19.4085 102.311 19.5454C101.909 19.6824 101.485 19.7438 101.04 19.7298L101.005 19.8549C101.453 20.0043 101.851 20.2632 102.197 20.6317C102.55 20.9971 102.795 21.4457 102.935 21.9774C103.074 22.5092 103.053 23.1003 102.872 23.7508C102.687 24.4139 102.36 24.9663 101.891 25.408C101.423 25.8456 100.823 26.1282 100.091 26.2558C99.3587 26.3834 98.502 26.3131 97.5206 26.045L92.3278 24.6263ZM95.1922 23.3221L97.6915 24.0049C98.535 24.2354 99.1874 24.2408 99.6485 24.0213C100.115 23.7987 100.419 23.433 100.561 22.9243C100.667 22.5448 100.668 22.1772 100.565 21.8214C100.463 21.4615 100.263 21.1466 99.9654 20.8768C99.6687 20.6028 99.2803 20.4002 98.8001 20.269L96.2381 19.569L95.1922 23.3221ZM96.7036 17.8989L99.0024 18.527C99.4033 18.6365 99.7849 18.6622 100.147 18.6041C100.51 18.5418 100.822 18.4003 101.081 18.1794C101.346 17.9555 101.53 17.6559 101.635 17.2806C101.773 16.7844 101.712 16.3278 101.45 15.9108C101.193 15.4951 100.722 15.1936 100.037 15.0065L97.6885 14.3648L96.7036 17.8989Z" fill="#2D3748"/>
<path d="M106.518 29.2456L104.268 28.0007L114.901 18.6861L117.503 20.126L115.069 33.9771L112.819 32.7321L114.907 21.8063L114.816 21.756L106.518 29.2456ZM109.155 24.7456L115.291 28.1409L114.34 29.8261L108.203 26.4308L109.155 24.7456Z" fill="#2D3748"/>
<path d="M131.788 37.1672L130.022 35.4993C130.248 35.1649 130.401 34.8232 130.478 34.4741C130.559 34.1218 130.574 33.7726 130.523 33.4265C130.472 33.0804 130.355 32.7465 130.172 32.4247C129.995 32.1029 129.759 31.8022 129.463 31.5228C128.938 31.0263 128.346 30.7171 127.688 30.5954C127.032 30.4706 126.348 30.5506 125.635 30.8354C124.924 31.117 124.222 31.6179 123.528 32.3379C122.822 33.0704 122.342 33.796 122.088 34.5149C121.84 35.2336 121.795 35.911 121.951 36.5471C122.114 37.1831 122.456 37.7479 122.978 38.2414C123.268 38.515 123.575 38.7332 123.898 38.8963C124.228 39.0592 124.566 39.161 124.912 39.2016C125.261 39.2453 125.609 39.2234 125.958 39.136C126.31 39.0516 126.648 38.8945 126.972 38.6645L128.728 40.3417C128.223 40.7344 127.668 41.0261 127.064 41.2169C126.462 41.4108 125.838 41.4939 125.191 41.4664C124.547 41.4357 123.907 41.2831 123.269 41.0086C122.635 40.731 122.03 40.3201 121.454 39.776C120.605 38.9733 120.034 38.062 119.743 37.0421C119.451 36.0222 119.468 34.9631 119.793 33.8648C120.118 32.7665 120.776 31.703 121.768 30.6744C122.762 29.6428 123.806 28.9435 124.899 28.5767C125.995 28.2068 127.064 28.1422 128.107 28.3829C129.149 28.6236 130.092 29.1423 130.936 29.9391C131.474 30.4475 131.902 30.995 132.22 31.5817C132.539 32.1683 132.739 32.7775 132.821 33.4093C132.907 34.038 132.865 34.6711 132.695 35.3088C132.531 35.9463 132.229 36.5658 131.788 37.1672Z" fill="#2D3748"/>
<path d="M127.715 46.0743L138.988 39.0204L140.285 41.0511L135.105 44.2922L135.192 44.429L143.163 45.5613L144.746 48.0408L136.92 46.8711L133.497 55.1331L131.938 52.6919L134.637 46.3234L132.369 46.004L129.011 48.105L127.715 46.0743Z" fill="#2D3748"/>
<path d="M37.9401 124.641C38.1175 124.321 38.2396 123.997 38.3064 123.669C38.3793 123.341 38.3953 123.014 38.3544 122.688C38.3165 122.364 38.2154 122.047 38.0512 121.737C37.89 121.424 37.6702 121.125 37.3917 120.84C36.8923 120.329 36.3176 119.999 35.6678 119.848C35.0179 119.698 34.3295 119.749 33.6024 120.002C32.8815 120.256 32.1617 120.727 31.443 121.416C30.7181 122.111 30.2146 122.813 29.9326 123.521C29.6505 124.23 29.575 124.911 29.706 125.565C29.8402 126.216 30.1676 126.808 30.6883 127.34C31.1605 127.823 31.6629 128.15 32.1955 128.323C32.7311 128.5 33.2646 128.519 33.796 128.381C34.3305 128.24 34.8305 127.947 35.2961 127.5L35.6166 127.949L33.092 125.368L34.4512 124.064L38.2245 127.922L37.0715 129.028C36.2497 129.816 35.3693 130.324 34.4304 130.553C33.4914 130.781 32.5628 130.748 31.6445 130.453C30.7294 130.155 29.8874 129.613 29.1185 128.827C28.2618 127.951 27.708 126.992 27.457 125.949C27.2122 124.907 27.2753 123.848 27.6463 122.772C28.0235 121.697 28.7183 120.674 29.7306 119.703C30.5055 118.96 31.3036 118.405 32.1248 118.037C32.949 117.672 33.7658 117.483 34.5752 117.468C35.3877 117.451 36.1637 117.6 36.9032 117.917C37.6458 118.23 38.3213 118.698 38.9298 119.32C39.4444 119.846 39.8461 120.412 40.1348 121.016C40.4267 121.618 40.603 122.232 40.6638 122.857C40.7275 123.486 40.6762 124.102 40.5096 124.705C40.343 125.309 40.0586 125.872 39.6564 126.396L37.9401 124.641Z" fill="#2D3748"/>
<path d="M51.1668 129.222L53.1818 130.543L48.3531 137.766C47.8238 138.558 47.17 139.131 46.3916 139.485C45.6169 139.841 44.7779 139.967 43.8747 139.862C42.9738 139.753 42.0708 139.401 41.1656 138.808C40.2568 138.213 39.5758 137.526 39.1224 136.747C38.6715 135.965 38.4605 135.151 38.4893 134.306C38.5182 133.461 38.7972 132.642 39.3266 131.85L44.1552 124.627L46.1702 125.948L41.4534 133.003C41.1454 133.464 40.9725 133.941 40.9347 134.434C40.9005 134.929 41.0013 135.401 41.2371 135.851C41.4753 136.297 41.8497 136.687 42.3602 137.021C42.8707 137.356 43.3798 137.545 43.8875 137.587C44.4012 137.629 44.8797 137.536 45.323 137.309C45.7664 137.082 46.1421 136.739 46.45 136.278L51.1668 129.222Z" fill="#2D3748"/>
<path d="M51.5884 144.413L49.1898 143.487L58.4336 132.802L61.2077 133.874L60.7043 147.936L58.3057 147.009L58.869 135.894L58.7721 135.856L51.5884 144.413ZM53.5792 139.593L60.1209 142.121L59.4113 143.921L52.8696 141.393L53.5792 139.593Z" fill="#2D3748"/>
<path d="M64.6552 148.91L66.9227 135.806L71.8395 136.64C72.8468 136.811 73.6616 137.129 74.2839 137.595C74.9106 138.061 75.3442 138.64 75.585 139.33C75.8307 140.017 75.8812 140.779 75.7366 141.615C75.5911 142.455 75.2857 143.154 74.8201 143.712C74.3596 144.266 73.7544 144.653 73.0047 144.873C72.2557 145.088 71.3776 145.111 70.3703 144.94L66.8684 144.346L67.2094 142.375L70.3913 142.915C70.9802 143.015 71.4766 143.015 71.8802 142.917C72.2846 142.814 72.6037 142.62 72.8376 142.335C73.0765 142.046 73.2361 141.669 73.3166 141.205C73.397 140.74 73.3739 140.327 73.2472 139.968C73.1213 139.604 72.8853 139.305 72.5392 139.07C72.1939 138.832 71.7246 138.662 71.1314 138.562L68.9547 138.192L67.0303 149.313L64.6552 148.91ZM72.456 144.121L74.6744 150.609L72.0239 150.16L69.8632 143.681L72.456 144.121Z" fill="#2D3748"/>
<path d="M80.3271 150.83L77.757 150.913L81.9971 137.47L84.9695 137.374L90.0947 150.513L87.5246 150.597L83.6253 140.146L83.5215 140.149L80.3271 150.83ZM80.2392 145.616L87.2485 145.389L87.3124 147.323L80.3031 147.55L80.2392 145.616Z" fill="#2D3748"/>
<path d="M101.487 134.353L104.773 147.239L102.695 147.759L94.3767 140.501L94.2696 140.528L96.5084 149.306L94.1713 149.89L90.8844 137.004L92.9759 136.481L101.289 143.746L101.402 143.718L99.162 134.934L101.487 134.353Z" fill="#2D3748"/>
<path d="M103.868 135.641L102.975 133.83L112.53 129.215L113.422 131.027L109.721 132.814L114.706 142.932L112.554 143.971L107.569 133.853L103.868 135.641Z" fill="#2D3748"/>
<path d="M122.03 138.826L114.017 128.213L120.969 123.067L122.186 124.679L117.17 128.391L119.345 131.273L124.001 127.827L125.218 129.438L120.562 132.884L122.749 135.781L127.807 132.038L129.024 133.649L122.03 138.826Z" fill="#2D3748"/>
<path d="M132.304 130.671L122.519 121.665L128.44 115.36L129.925 116.727L125.654 121.277L128.31 123.722L132.275 119.499L133.761 120.867L129.796 125.089L132.467 127.547L136.774 122.96L138.26 124.328L132.304 130.671Z" fill="#2D3748"/>
<defs>
<radialGradient id="paint0_radial_5_5245" cx="0" cy="0" r="1" gradientUnits="userSpaceOnUse" gradientTransform="translate(51.8761 26.5147) scale(132.688 131.372)">
<stop stop-color="#00E7B2"/>
<stop offset="0.3524" stop-color="#03E6B1"/>
<stop offset="0.5753" stop-color="#0BE1AF"/>
<stop offset="0.7622" stop-color="#1ADAAA"/>
<stop offset="0.9283" stop-color="#2FCFA4"/>
<stop offset="1" stop-color="#3AC9A0"/>
</radialGradient>
<radialGradient id="paint1_radial_5_5245" cx="0" cy="0" r="1" gradientUnits="userSpaceOnUse" gradientTransform="translate(53.569 29.9985) scale(125.105 123.867)">
<stop stop-color="#FFC738"/>
<stop offset="0.4873" stop-color="#FFC636"/>
<stop offset="0.6746" stop-color="#FFC22F"/>
<stop offset="0.8103" stop-color="#FFBB23"/>
<stop offset="0.9203" stop-color="#FFB112"/>
<stop offset="1" stop-color="#FFA700"/>
</radialGradient>
<radialGradient id="paint2_radial_5_5245" cx="0" cy="0" r="1" gradientUnits="userSpaceOnUse" gradientTransform="translate(62.4621 45.6158) scale(85.2992 84.4546)">
<stop stop-color="#FF4974"/>
<stop offset="0.4073" stop-color="#FE4772"/>
<stop offset="0.5963" stop-color="#FB3F6D"/>
<stop offset="0.7403" stop-color="#F73363"/>
<stop offset="0.8615" stop-color="#F02055"/>
<stop offset="0.9673" stop-color="#E70944"/>
<stop offset="1" stop-color="#E4003D"/>
</radialGradient>
<radialGradient id="paint3_radial_5_5245" cx="0" cy="0" r="1" gradientUnits="userSpaceOnUse" gradientTransform="translate(13.4011 73.9828) scale(14.9274 14.7796)">
<stop stop-color="#FF4974"/>
<stop offset="0.4073" stop-color="#FE4772"/>
<stop offset="0.5963" stop-color="#FB3F6D"/>
<stop offset="0.7403" stop-color="#F73363"/>
<stop offset="0.8615" stop-color="#F02055"/>
<stop offset="0.9673" stop-color="#E70944"/>
<stop offset="1" stop-color="#E4003D"/>
</radialGradient>
<radialGradient id="paint4_radial_5_5245" cx="0" cy="0" r="1" gradientUnits="userSpaceOnUse" gradientTransform="translate(142.681 73.9828) scale(14.9274 14.7796)">
<stop stop-color="#FF4974"/>
<stop offset="0.4073" stop-color="#FE4772"/>
<stop offset="0.5963" stop-color="#FB3F6D"/>
<stop offset="0.7403" stop-color="#F73363"/>
<stop offset="0.8615" stop-color="#F02055"/>
<stop offset="0.9673" stop-color="#E70944"/>
<stop offset="1" stop-color="#E4003D"/>
</radialGradient>
</defs>
</svg>
