<svg width="126" height="91" viewBox="0 0 126 91" fill="none" xmlns="http://www.w3.org/2000/svg">
<path d="M43.7915 10.4518L43.4858 10.0562L43.7915 10.4518ZM59.9882 87.9869L59.6406 87.6274L59.9882 87.9869ZM3.81848 88.388C3.59694 88.5529 3.28371 88.5069 3.11887 88.2853L0.432595 84.6751C0.267754 84.4535 0.313713 84.1403 0.535263 83.9755C0.756806 83.8106 1.07003 83.8566 1.23487 84.0781L3.62267 87.2873L6.83179 84.8995C7.05333 84.7346 7.36656 84.7806 7.5314 85.0021C7.69624 85.2237 7.65028 85.5369 7.42873 85.7017L3.81848 88.388ZM3.02531 87.9143C3.14711 87.0843 3.2905 86.2789 3.45457 85.4978L4.43321 85.7034C4.27347 86.4639 4.13363 87.2491 4.01471 88.0595L3.02531 87.9143ZM4.76244 80.8679C5.34113 79.275 6.02242 77.809 6.79456 76.4637L7.66185 76.9615C6.91953 78.2548 6.26218 79.6683 5.70235 81.2094L4.76244 80.8679ZM9.60812 72.5096C10.7018 71.2602 11.8961 70.1624 13.1719 69.2059L13.7718 70.006C12.5505 70.9217 11.4075 71.9723 10.3606 73.1683L9.60812 72.5096ZM17.3299 66.6993C18.7882 66.0045 20.3104 65.4474 21.8757 65.016L22.1414 65.9801C20.6285 66.397 19.1617 66.9342 17.76 67.6021L17.3299 66.6993ZM26.6246 64.0936C28.216 63.9036 29.83 63.8218 31.448 63.8372L31.4385 64.8371C29.8603 64.8221 28.2892 64.9019 26.7432 65.0865L26.6246 64.0936ZM36.2591 64.1595C37.8599 64.3562 39.4474 64.6386 41.0035 64.9963L40.7795 65.9709C39.256 65.6207 37.7025 65.3444 36.1371 65.152L36.2591 64.1595ZM45.6392 66.3116C47.1943 66.8394 48.6948 67.4395 50.1194 68.1L49.6988 69.0072C48.3074 68.3621 46.84 67.7752 45.3178 67.2586L45.6392 66.3116ZM54.3677 70.389C55.808 71.2894 57.1182 72.2559 58.2631 73.2706L57.5999 74.019C56.5017 73.0457 55.2372 72.1118 53.8377 71.237L54.3677 70.389ZM61.5056 76.9367C62.4835 78.4362 63.0913 80.0031 63.2141 81.5865L62.2171 81.6638C62.1102 80.2851 61.5773 78.8773 60.668 77.483L61.5056 76.9367ZM61.941 86.4175C61.5147 87.0784 60.981 87.7224 60.3357 88.3463L59.6406 87.6274C60.2368 87.051 60.7201 86.4654 61.1006 85.8755L61.941 86.4175ZM60.3357 88.3463C59.7254 88.9365 59.0922 89.4255 58.4388 89.8161L57.9257 88.9578C58.5075 88.61 59.0804 88.1691 59.6406 87.6274L60.3357 88.3463ZM53.8057 90.9846C52.2944 90.9058 50.7676 90.4221 49.2612 89.6076L49.7368 88.728C51.1423 89.4879 52.5251 89.9165 53.8578 89.986L53.8057 90.9846ZM45.485 86.8607C44.4135 85.8823 43.3597 84.75 42.3357 83.4856L43.1128 82.8563C44.11 84.0874 45.1298 85.1822 46.1593 86.1223L45.485 86.8607ZM39.6345 79.7401C38.8299 78.4953 38.0525 77.1698 37.3093 75.7754L38.1918 75.305C38.9226 76.6763 39.6859 77.9775 40.4743 79.1972L39.6345 79.7401ZM35.2932 71.6314C34.6852 70.2605 34.1105 68.8419 33.5746 67.3841L34.5132 67.0391C35.0417 68.4768 35.6082 69.8753 36.2073 71.226L35.2932 71.6314ZM32.1261 63.029C31.6919 61.575 31.2975 60.0929 30.9476 58.5902L31.9216 58.3634C32.2668 59.8459 32.6559 61.3082 33.0843 62.7428L32.1261 63.029ZM30.0462 54.0878C29.7938 52.5817 29.5885 51.0628 29.4348 49.538L30.4298 49.4377C30.5812 50.9401 30.7835 52.4373 31.0325 53.9224L30.0462 54.0878ZM29.1331 44.9536C29.0868 43.4181 29.0971 41.8836 29.1685 40.3572L30.1674 40.4039C30.0973 41.9036 30.0871 43.4125 30.1326 44.9236L29.1331 44.9536ZM29.5745 35.7768C29.777 34.2477 30.0475 32.7343 30.3908 31.2443L31.3653 31.4688C31.0294 32.9265 30.7644 34.4087 30.5659 35.9081L29.5745 35.7768ZM31.6583 26.8116C32.1613 25.3547 32.7444 23.9298 33.413 22.5449L34.3135 22.9796C33.6628 24.3277 33.0943 25.7163 32.6035 27.138L31.6583 26.8116ZM35.679 18.5194C36.5132 17.2381 37.4356 16.0042 38.4508 14.8255L39.2085 15.4781C38.2231 16.6222 37.3275 17.8202 36.517 19.065L35.679 18.5194ZM41.6924 11.54C42.2678 11.0306 42.8654 10.5357 43.4858 10.0562L44.0973 10.8474C43.4945 11.3133 42.914 11.794 42.3554 12.2887L41.6924 11.54ZM43.4858 10.0562C44.0902 9.58901 44.704 9.14083 45.3267 8.71124L45.8946 9.53435C45.2866 9.95377 44.6873 10.3913 44.0973 10.8474L43.4858 10.0562ZM49.2029 6.33239C50.541 5.60582 51.9104 4.95344 53.3059 4.37182L53.6906 5.29484C52.3258 5.86369 50.9873 6.50139 49.6801 7.21119L49.2029 6.33239ZM57.581 2.83079C59.028 2.38627 60.4958 2.00949 61.9791 1.69693L62.1853 2.67544C60.7304 2.98201 59.2918 3.35135 57.8746 3.78671L57.581 2.83079ZM66.4561 0.95017C67.9543 0.763509 69.4627 0.636716 70.976 0.566373L71.0224 1.5653C69.534 1.63448 68.0514 1.75915 66.5797 1.94249L66.4561 0.95017ZM75.5095 0.520872C77.019 0.559423 78.5285 0.650419 80.033 0.790548L79.9402 1.78624C78.4575 1.64813 76.9704 1.5585 75.484 1.52054L75.5095 0.520872ZM84.5277 1.35525C86.0226 1.59124 87.5075 1.8734 88.9773 2.19839L88.7614 3.17481C87.3111 2.85412 85.8462 2.57577 84.3718 2.34302L84.5277 1.35525ZM93.3675 3.30748C94.829 3.72319 96.2697 4.17995 97.6841 4.67426L97.3542 5.61828C95.9583 5.13042 94.5364 4.67962 93.0939 4.26933L93.3675 3.30748ZM101.913 6.29557C103.323 6.88521 104.698 7.51169 106.033 8.17111L105.59 9.06773C104.274 8.41766 102.918 7.7998 101.527 7.21809L101.913 6.29557ZM110.032 10.3135C111.365 11.0876 112.646 11.8951 113.866 12.7312L113.301 13.5562C112.102 12.7347 110.842 11.9405 109.53 11.1783L110.032 10.3135ZM117.496 15.4486C118.706 16.4419 119.833 17.4652 120.865 18.512L120.152 19.2139C119.147 18.1942 118.047 17.1945 116.861 16.2217L117.496 15.4486ZM123.85 21.9616C124.317 22.5852 124.749 23.2145 125.144 23.8485L124.296 24.3777C123.916 23.7691 123.5 23.163 123.05 22.5607L123.85 21.9616Z" fill="url(#paint0_linear_5_5158)"/>
<defs>
<linearGradient id="paint0_linear_5_5158" x1="64.8166" y1="90.4961" x2="64.8166" y2="0.999784" gradientUnits="userSpaceOnUse">
<stop stop-color="#0B86FF"/>
<stop offset="1" stop-color="#00E0FF"/>
</linearGradient>
</defs>
</svg>
