<svg width="100" height="69" viewBox="0 0 100 69" fill="none" xmlns="http://www.w3.org/2000/svg">
<path d="M3.03657 23.9539C2.99756 23.8098 2.98757 23.7014 3.00658 23.6287C3.03462 23.5537 3.11179 23.4994 3.23809 23.4659C3.37341 23.43 3.57078 23.4984 3.8302 23.671C4.08962 23.8435 4.25347 24.0559 4.32174 24.3082C4.49241 24.9389 4.53605 26.6364 4.45266 29.4009C4.40121 30.747 4.4084 31.5418 4.47423 31.785C4.54006 32.0283 4.69025 32.1188 4.9248 32.0565C5.94421 31.7861 7.01774 31.3227 8.1454 30.6662C8.50405 30.4552 8.71947 30.3401 8.79164 30.321C8.87283 30.2994 8.93183 30.3031 8.96865 30.3319C9.00303 30.3518 9.03241 30.4068 9.05679 30.4969C9.15919 30.8752 8.7909 31.3544 7.95192 31.9342C7.12197 32.5117 6.22886 32.9272 5.27261 33.1809C4.83959 33.2958 4.42656 33.2702 4.03353 33.1041C3.64951 32.9356 3.41118 32.6802 3.31853 32.3378C3.22344 31.9865 3.19248 30.6573 3.22565 28.3504C3.26783 26.041 3.20481 24.5756 3.03657 23.9539ZM12.4227 24.1289C12.8286 24.0212 13.2591 24.1291 13.7141 24.4526C14.1666 24.767 14.4379 25.0909 14.5282 25.4243C14.6159 25.7486 14.5934 26.1119 14.4605 26.5141C14.6053 26.6205 14.6911 26.7232 14.718 26.8223C14.7862 27.0746 14.8446 27.5226 14.8931 28.1663C14.9507 28.8077 14.9915 29.2266 15.0157 29.4229C15.0488 29.6169 15.0722 29.7749 15.0859 29.8968C15.0971 30.0097 15.1038 30.1238 15.106 30.239C15.1309 30.4738 15.0802 30.608 14.9539 30.6415C14.7915 30.6846 14.6184 30.5808 14.4345 30.3303C14.2573 30.0683 14.0987 29.7145 13.9587 29.2688C13.4313 30.4999 12.8248 31.2063 12.1392 31.3882C11.7242 31.4983 11.2662 31.4315 10.7652 31.1879C10.2707 30.9328 9.97229 30.6161 9.86989 30.2377C9.7236 29.6971 9.74164 28.9778 9.92402 28.0797C10.104 27.1725 10.4256 26.3244 10.8888 25.5352C11.3521 24.7461 11.8634 24.2773 12.4227 24.1289ZM13.6888 26.3422C13.4621 25.5043 13.1818 25.1297 12.848 25.2182C12.4962 25.3116 12.154 25.6727 11.8214 26.3017C11.4864 26.9217 11.2419 27.59 11.0878 28.3069C10.9337 29.0237 10.9066 29.5668 11.0066 29.9361C11.048 30.0893 11.1453 30.1987 11.2984 30.2643C11.4491 30.3208 11.6101 30.3264 11.7815 30.2809C12.2055 30.1684 12.6069 29.7578 12.9855 29.049C13.3617 28.3312 13.5426 27.5349 13.5283 26.66C13.5187 26.5177 13.5735 26.4162 13.6925 26.3557L13.6888 26.3422ZM20.059 22.5086C20.056 22.3549 20.0653 22.2462 20.0868 22.1826C20.1082 22.1189 20.1776 22.0716 20.2949 22.0404C20.4211 22.0069 20.6017 22.0846 20.8365 22.2733C21.0803 22.4597 21.2315 22.661 21.29 22.8772C21.3217 22.9943 21.311 23.7407 21.2578 25.1163C21.2046 26.4919 21.171 27.5823 21.1569 28.3875C21.151 28.7947 21.0488 29.0245 20.8504 29.0772C20.7331 29.1083 20.6205 29.0851 20.5124 29.0075C20.4044 28.9299 20.3151 28.7605 20.2444 28.4993C20.1737 28.238 20.1494 27.7375 20.1716 26.9977C19.9585 27.7109 19.6846 28.3243 19.3498 28.838C19.015 29.3517 18.6627 29.6576 18.2928 29.7557C17.932 29.8514 17.5429 29.7712 17.1254 29.515C16.708 29.2588 16.4506 28.9505 16.353 28.5902C16.1214 27.7343 16.0806 26.6009 16.2305 25.1899C16.3871 23.7676 16.6322 23.0121 16.966 22.9236C17.1284 22.8805 17.2889 22.92 17.4477 23.042C17.613 23.1527 17.7212 23.3026 17.7724 23.4918C17.7944 23.5729 17.7518 23.898 17.6448 24.4671C17.5353 25.0272 17.4502 25.6774 17.3895 26.4178C17.3264 27.1491 17.3631 27.767 17.4996 28.2715C17.5386 28.4156 17.6166 28.5253 17.7337 28.6005C17.8482 28.6666 17.9687 28.683 18.095 28.6494C18.4378 28.5585 18.7621 28.149 19.0678 27.4209C19.3826 26.6905 19.6254 25.8729 19.7964 24.9681C19.9673 24.0634 20.0548 23.2435 20.059 22.5086ZM24.1849 25.6723C24.6535 23.974 25.0622 22.6973 25.4108 21.8419C25.7661 20.9752 26.1151 20.4964 26.4579 20.4054C26.8097 20.3121 27.189 20.4094 27.5957 20.6974C28.0114 20.983 28.2753 21.333 28.3875 21.7475C28.563 22.3961 28.6287 23.2284 28.5846 24.2444C28.5114 26.1178 28.2583 27.1119 27.8253 27.2268C27.6269 27.2794 27.4911 27.1706 27.4179 26.9003C27.3667 26.7111 27.3578 26.3031 27.3912 25.6763C27.4312 25.038 27.4568 24.418 27.468 23.8164C27.4858 23.2033 27.4569 22.7572 27.3813 22.4779C27.3033 22.1896 27.2009 21.9898 27.0741 21.8786C26.9564 21.765 26.8524 21.7202 26.7622 21.7441C26.681 21.7657 26.6026 21.8154 26.527 21.8934C26.4514 21.9714 26.3721 22.089 26.2889 22.2463C26.2148 22.4011 26.1452 22.5548 26.0801 22.7072C26.0126 22.8507 25.9326 23.0554 25.8402 23.3213C25.7568 23.5848 25.6874 23.8108 25.6321 23.9993C25.5743 24.1788 25.4909 24.4423 25.3819 24.7899C25.2729 25.1374 25.1895 25.401 25.1318 25.5804C25.074 25.7599 24.9992 26.0018 24.9076 26.3062C24.8159 26.6105 24.7399 26.8479 24.6797 27.0184C24.6285 27.1865 24.5674 27.3717 24.4965 27.574C24.3612 27.9671 24.2258 28.1817 24.0905 28.2176C23.9642 28.2511 23.7886 28.1915 23.5635 28.0387C23.336 27.877 23.2016 27.7196 23.1601 27.5664C23.1479 27.5214 23.1466 27.3914 23.1561 27.1764C23.1861 26.6084 23.2012 25.914 23.2014 25.0931C23.1993 24.2633 23.0743 23.355 22.8266 22.3682C22.6757 21.7033 22.6814 21.3494 22.8438 21.3063C23.0422 21.2536 23.2688 21.3046 23.5233 21.4591C23.7778 21.6137 23.9392 21.8171 24.0075 22.0694C24.0733 22.3126 24.1259 22.8105 24.1651 23.5629C24.211 24.3039 24.2176 25.007 24.1849 25.6723ZM32.889 25.8834C32.3658 26.0222 31.8193 25.9499 31.2495 25.6666C30.6772 25.3742 30.3155 24.9487 30.1643 24.3902C30.0107 23.8226 30.0234 23.1191 30.2024 22.2799C30.3813 21.4406 30.6978 20.6807 31.1518 20.0002C31.6148 19.3173 32.1305 18.9005 32.6988 18.7497C33.0687 18.6516 33.4386 18.7321 33.8085 18.9912C34.1783 19.2504 34.3974 19.5061 34.4657 19.7584C34.4852 19.8304 34.4797 19.8995 34.4492 19.9655C34.4163 20.0225 34.3547 20.063 34.2645 20.0869C34.1833 20.1085 34.0125 20.0669 33.7521 19.9621C33.4917 19.8574 33.2758 19.8278 33.1044 19.8733C32.6173 20.0025 32.1648 20.5812 31.7468 21.6094C31.3289 22.6376 31.2065 23.4715 31.3797 24.1112C31.4552 24.3905 31.6007 24.5885 31.816 24.7052C32.0403 24.8195 32.3464 24.8252 32.7343 24.7222C33.1312 24.6169 33.4799 24.4762 33.7803 24.2999C34.0873 24.1123 34.3188 23.9494 34.4748 23.8115C34.6284 23.6645 34.7548 23.5779 34.8541 23.5515C35.0255 23.5061 35.1343 23.5689 35.1807 23.7401C35.2514 24.0014 35.0185 24.3914 34.4821 24.9103C33.9523 25.4178 33.4213 25.7422 32.889 25.8834ZM35.6377 14.4794C35.5426 14.128 35.6033 13.9236 35.8198 13.8662C35.9912 13.8207 36.2082 13.908 36.4708 14.128C36.7424 14.3456 36.9123 14.5806 36.9806 14.8328C37.1391 15.4184 37.2609 16.4579 37.346 17.9514C37.4376 19.4334 37.4391 20.9394 37.3504 22.4692C37.8112 20.5992 38.2463 19.2237 38.6556 18.3426C39.0716 17.4501 39.4961 16.9464 39.9291 16.8315C40.1637 16.7693 40.4892 16.9002 40.9056 17.2243C41.3311 17.5459 41.5986 17.9095 41.7084 18.3149C41.8181 18.7203 41.8699 19.3583 41.8638 20.229C41.8555 22.4135 41.6033 23.5715 41.1071 23.7032C40.9086 23.7558 40.7728 23.647 40.6997 23.3767C40.6265 23.1064 40.6117 22.6228 40.6551 21.9257C40.7553 20.4024 40.7395 19.3975 40.6079 18.911C40.564 18.7488 40.4868 18.6245 40.3764 18.5379C40.2659 18.4513 40.1521 18.4236 40.0348 18.4547C39.9175 18.4858 39.7902 18.5872 39.653 18.7588C39.5157 18.9304 39.368 19.2061 39.2097 19.5861C39.0127 20.0729 38.8156 20.6128 38.6183 21.2059C38.4301 21.7966 38.3145 22.1555 38.2716 22.2828C38.2353 22.3986 38.168 22.6144 38.0697 22.9302C37.9805 23.2435 37.9136 23.4786 37.869 23.6352C37.8219 23.7829 37.7605 23.9489 37.6846 24.1331C37.5576 24.4855 37.44 24.676 37.3317 24.7048C37.2234 24.7335 37.0523 24.6727 36.8182 24.5223C36.5817 24.363 36.4452 24.2157 36.4086 24.0806C36.3696 23.9365 36.3473 23.6575 36.3417 23.2438C36.3246 21.3944 36.2882 20.1342 36.2323 19.4635C36.0675 16.9966 35.8693 15.3353 35.6377 14.4794ZM52.8994 13.3906C53.0438 13.3523 53.2264 13.4197 53.4473 13.5928C53.6748 13.7546 53.8239 13.9661 53.8946 14.2274C53.9433 14.4075 53.9242 15.0692 53.8371 16.2124C53.7501 17.3556 53.6901 18.1344 53.6572 18.5487C53.6309 18.9515 53.5891 19.4937 53.5318 20.1752C53.481 20.8453 53.4312 21.5006 53.3822 22.1413C53.2798 23.5493 52.7775 24.3729 51.8754 24.6122C51.3612 24.7487 50.8268 24.7214 50.2724 24.5306C49.7204 24.3487 49.3993 24.0911 49.3091 23.7578C49.2749 23.6316 49.2958 23.4764 49.3716 23.2922C49.4384 23.1103 49.5124 23.0086 49.5936 22.987C49.6748 22.9655 49.8324 23.0299 50.0665 23.1802C50.7506 23.636 51.2776 23.8149 51.6475 23.7167C51.9272 23.6425 52.1127 23.3278 52.2042 22.7724C52.298 22.2261 52.3601 21.6158 52.3903 20.9415C52.432 20.2738 52.4533 19.9061 52.4543 19.8382C52.4643 19.768 52.4694 19.6797 52.4697 19.5734C52.4789 19.4647 52.4861 19.3663 52.4913 19.278C52.0873 20.3218 51.574 20.9263 50.9515 21.0915C50.5727 21.192 50.1733 21.1096 49.7534 20.8444C49.3426 20.5768 49.0726 20.2043 48.9433 19.7268C48.8141 19.2493 48.7571 18.574 48.7722 17.701C48.7873 16.8279 48.8723 16.0522 49.0271 15.3738C49.1819 14.6955 49.3586 14.3299 49.557 14.2773C49.7194 14.2342 49.889 14.2713 50.0658 14.3886C50.2491 14.4944 50.3615 14.6239 50.403 14.7771C50.4444 14.9302 50.4137 15.2812 50.3108 15.8299C49.9848 17.5193 49.934 18.7784 50.1583 19.6073C50.1973 19.7514 50.2753 19.8611 50.3924 19.9362C50.5069 20.0024 50.6274 20.0187 50.7537 19.9852C51.0785 19.8991 51.3884 19.5079 51.6834 18.8116C51.9784 18.1153 52.2081 17.3205 52.3724 16.4272C52.5077 15.6768 52.6066 14.738 52.669 13.611C52.6783 13.5023 52.7551 13.4289 52.8994 13.3906ZM58.6599 14.3246C58.577 14.0183 58.4494 13.7432 58.277 13.4992C58.1022 13.2463 57.903 13.0819 57.6794 13.006C57.1032 13.3423 56.6969 13.9667 56.4604 14.8792C56.2305 15.7803 56.2094 16.5777 56.3971 17.2714C56.5849 17.9651 56.8733 18.3521 57.2624 18.4323C57.8778 18.1338 58.3087 17.5464 58.5549 16.6699C58.8078 15.7821 58.8428 15.0003 58.6599 14.3246ZM55.1339 15.3904C55.2595 14.6039 55.5139 13.9185 55.8972 13.334C56.2871 12.7381 56.7481 12.3695 57.2804 12.2283C57.8217 12.0847 58.3349 12.1948 58.8201 12.5585C59.3028 12.9133 59.6332 13.4195 59.8112 14.0771C59.9867 14.7258 60.0093 15.4344 59.8789 16.2028C59.746 16.9623 59.4608 17.6415 59.0234 18.2403C58.5926 18.8277 58.0659 19.204 57.4435 19.3692C56.9834 19.4912 56.5427 19.3812 56.1214 19.0392C55.7001 18.6971 55.4016 18.2017 55.2261 17.5531C55.0481 16.8954 55.0174 16.1745 55.1339 15.3904ZM64.9759 10.5923C64.9729 10.4386 64.9822 10.3299 65.0037 10.2663C65.0251 10.2026 65.0945 10.1553 65.2118 10.1242C65.3381 10.0906 65.5186 10.1683 65.7534 10.357C65.9972 10.5434 66.1484 10.7447 66.2069 10.9609C66.2386 11.0781 66.2279 11.8244 66.1747 13.2C66.1216 14.5756 66.0879 15.6661 66.0738 16.4713C66.0679 16.8784 65.9657 17.1082 65.7673 17.1609C65.65 17.192 65.5374 17.1688 65.4294 17.0912C65.3213 17.0137 65.232 16.8442 65.1613 16.583C65.0906 16.3217 65.0663 15.8212 65.0885 15.0815C64.8754 15.7946 64.6015 16.408 64.2667 16.9217C63.9319 17.4354 63.5796 17.7413 63.2098 17.8394C62.8489 17.9351 62.4598 17.8549 62.0424 17.5987C61.6249 17.3425 61.3675 17.0342 61.2699 16.6739C61.0383 15.818 60.9975 14.6846 61.1474 13.2736C61.304 11.8513 61.5491 11.0958 61.8829 11.0073C62.0453 10.9642 62.2058 11.0037 62.3646 11.1257C62.5299 11.2364 62.6381 11.3863 62.6893 11.5755C62.7113 11.6566 62.6687 11.9817 62.5617 12.5508C62.4522 13.1109 62.3671 13.7612 62.3064 14.5015C62.2433 15.2328 62.28 15.8507 62.4165 16.3552C62.4555 16.4994 62.5335 16.609 62.6506 16.6842C62.7652 16.7503 62.8856 16.7667 63.0119 16.7332C63.3547 16.6422 63.679 16.2327 63.9847 15.5046C64.2995 14.7742 64.5423 13.9566 64.7133 13.0518C64.8842 12.1471 64.9717 11.3273 64.9759 10.5923ZM67.8561 11.1897L67.5412 10.1869C67.4267 9.76347 67.4686 9.52543 67.6671 9.47277C67.8385 9.4273 68.0313 9.49684 68.2456 9.68138C68.4665 9.85452 68.6184 10.0943 68.7013 10.4006C68.7818 10.6979 68.8337 10.9255 68.8571 11.0834C69.3201 9.686 69.9035 8.89394 70.6071 8.70726C71.0492 8.58999 71.2995 8.63947 71.358 8.85569C71.3872 8.9638 71.3644 9.07607 71.2896 9.19248C71.2147 9.3089 71.0849 9.45439 70.9001 9.62895C70.478 9.96301 70.1586 10.3905 69.9419 10.9115C69.7317 11.4211 69.596 11.9737 69.5348 12.5693C69.4736 13.1649 69.4299 13.6642 69.4035 14.0671C69.3862 14.4675 69.374 14.7798 69.3669 15.0037C69.3599 15.2277 69.3426 15.4496 69.315 15.6693C69.2682 16.068 69.1501 16.2924 68.9606 16.3427C68.8073 16.3834 68.6578 16.3313 68.5122 16.1864C68.3733 16.0302 68.2818 15.871 68.2379 15.7088C68.1916 15.5376 68.1781 15.184 68.1973 14.6478C68.26 13.4145 68.1463 12.2618 67.8561 11.1897ZM84.2629 7.21362C84.3092 7.38479 83.9659 7.6883 83.233 8.12414C83.5587 9.04196 83.8106 9.8297 83.9886 10.4874C84.2958 11.6225 84.305 12.2284 84.0164 12.305C83.863 12.3457 83.7156 12.2834 83.5742 12.1181C83.4328 11.9529 83.2716 11.6432 83.0907 11.1891C82.7935 10.3409 82.4966 9.51202 82.2002 8.70231C81.8235 8.91812 81.4804 9.11535 81.171 9.29399C80.8592 9.46363 80.3905 9.73279 79.7652 10.1015C79.5321 12.3842 79.3433 13.5447 79.199 13.583C79.0547 13.6213 78.8736 13.5776 78.6559 13.4519C78.4447 13.3148 78.3124 13.1472 78.2587 12.949C78.2343 12.8589 78.3183 12.151 78.5107 10.8254L78.416 10.8505C78.2356 10.8984 78.0573 10.8829 77.8813 10.804C77.7143 10.7228 77.6076 10.5966 77.5613 10.4254C77.5125 10.2453 77.8957 9.89256 78.7108 9.36732C78.7673 9.0047 78.8054 8.68078 78.8249 8.39558C78.8934 7.82701 78.9919 7.0477 79.1204 6.05766C79.2489 5.06762 79.3298 4.43781 79.3632 4.16824C79.3942 3.88965 79.5083 3.63246 79.7056 3.39667C79.9094 3.14947 80.1286 2.99476 80.3631 2.93253C80.6428 2.85834 81.0116 3.23848 81.4694 4.07296C81.9364 4.90504 82.4155 5.9608 82.9067 7.24025C83.152 7.14621 83.3694 7.07406 83.5588 7.0238C83.9648 6.91611 84.1995 6.97938 84.2629 7.21362ZM79.9147 8.67133C80.5089 8.33022 81.1465 8.00658 81.8275 7.70039C81.2482 6.20289 80.777 5.08708 80.414 4.35297C80.2591 5.38862 80.0927 6.82807 79.9147 8.67133ZM87.732 11.2758C87.6238 11.3045 87.4502 11.2347 87.2113 11.0663C86.9813 10.8956 86.842 10.7201 86.7932 10.5399C86.7445 10.3598 86.6705 9.03236 86.5712 6.55776C86.4786 4.07176 86.3612 2.54828 86.2191 1.98731C86.1776 1.83415 86.1676 1.72576 86.1891 1.66213C86.2171 1.5871 86.2943 1.53283 86.4206 1.49932C86.5559 1.46342 86.7651 1.55759 87.0482 1.78184C87.3402 2.00368 87.5302 2.27677 87.618 2.60111C87.7033 2.91643 87.7784 4.4801 87.8432 7.29213C87.8459 7.55213 87.8553 7.92623 87.8714 8.41442C87.885 8.8936 87.8932 9.2632 87.8959 9.5232C87.8986 9.7832 87.9028 10.0669 87.9087 10.3744C87.8992 10.9466 87.8403 11.2471 87.732 11.2758ZM17.4816 41.4092C17.8876 41.3015 18.3181 41.4094 18.773 41.7329C19.2255 42.0474 19.4969 42.3713 19.5871 42.7046C19.6749 43.0289 19.6523 43.3922 19.5195 43.7944C19.6643 43.9008 19.7501 44.0036 19.7769 44.1027C19.8452 44.3549 19.9036 44.8029 19.9521 45.4467C20.0097 46.088 20.0505 46.5069 20.0746 46.7032C20.1078 46.8972 20.1312 47.0552 20.1448 47.1771C20.1561 47.29 20.1628 47.4041 20.165 47.5194C20.1898 47.7542 20.1391 47.8883 20.0128 47.9218C19.8504 47.9649 19.6773 47.8612 19.4935 47.6106C19.3162 47.3486 19.1576 46.9948 19.0177 46.5491C18.4903 47.7802 17.8838 48.4866 17.1982 48.6685C16.7832 48.7786 16.3252 48.7118 15.8241 48.4682C15.3297 48.2131 15.0313 47.8964 14.9289 47.518C14.7826 46.9774 14.8006 46.2581 14.983 45.36C15.1629 44.4529 15.4845 43.6047 15.9478 42.8155C16.411 42.0264 16.9223 41.5576 17.4816 41.4092ZM18.7478 43.6225C18.521 42.7847 18.2408 42.41 17.907 42.4986C17.5551 42.5919 17.2129 42.953 16.8804 43.582C16.5454 44.202 16.3008 44.8704 16.1467 45.5872C15.9926 46.304 15.9656 46.8471 16.0655 47.2164C16.107 47.3696 16.2043 47.479 16.3574 47.5446C16.5081 47.6012 16.6691 47.6067 16.8405 47.5612C17.2645 47.4488 17.6658 47.0381 18.0445 46.3293C18.4207 45.6115 18.6016 44.8152 18.5872 43.9403C18.5777 43.798 18.6325 43.6966 18.7514 43.636L18.7478 43.6225ZM24.0953 39.6546C24.4021 39.5732 24.7371 39.6678 25.1004 39.9384C25.4612 40.1999 25.6758 40.4568 25.744 40.7091C25.7855 40.8622 25.734 40.958 25.5897 40.9963C25.4905 41.0226 25.3164 40.9867 25.0674 40.8886C24.8161 40.7815 24.5821 40.7566 24.3656 40.8141C24.1491 40.8715 23.8404 41.0886 23.4396 41.4653C23.0478 41.8396 22.8897 42.1664 22.9652 42.4457C23.0213 42.6529 23.5326 42.8987 24.4991 43.183C24.8685 43.2975 25.2221 43.4788 25.5601 43.7271C25.9046 43.9641 26.1256 44.2627 26.2231 44.6231C26.3182 44.9744 26.164 45.3871 25.7605 45.8611C25.3636 46.3237 24.8358 46.6423 24.1773 46.817C23.5277 46.9893 22.9077 46.9848 22.3172 46.8035C21.7357 46.6199 21.4071 46.3884 21.3315 46.1091C21.2998 45.992 21.3025 45.8947 21.3396 45.8173C21.3832 45.7284 21.4502 45.6721 21.5404 45.6481C21.6306 45.6242 21.7727 45.6492 21.9668 45.7233C22.549 45.9454 23.1018 45.9871 23.625 45.8482C24.1573 45.707 24.5248 45.5468 24.7277 45.3674C24.9281 45.1791 25.0015 44.9858 24.9478 44.7876C24.8918 44.5804 24.7024 44.3988 24.3799 44.243C24.0549 44.0782 23.7101 43.9476 23.3456 43.8511C22.9901 43.7523 22.6462 43.607 22.3139 43.4151C21.9816 43.2233 21.7788 42.9922 21.7057 42.7219C21.5765 42.2444 21.8167 41.6496 22.4265 40.9374C23.0429 40.2139 23.5992 39.7863 24.0953 39.6546ZM29.857 38.1261C30.1637 38.0447 30.4987 38.1393 30.862 38.4099C31.2228 38.6714 31.4374 38.9283 31.5057 39.1806C31.5471 39.3337 31.4957 39.4294 31.3513 39.4677C31.2521 39.4941 31.078 39.4582 30.8291 39.3601C30.5777 39.2529 30.3438 39.2281 30.1272 39.2855C29.9107 39.343 29.6021 39.56 29.2012 39.9368C28.8094 40.3111 28.6513 40.6379 28.7269 40.9172C28.783 41.1244 29.2942 41.3701 30.2607 41.6545C30.6301 41.7689 30.9838 41.9503 31.3217 42.1986C31.6662 42.4355 31.8872 42.7342 31.9848 43.0945C32.0799 43.4459 31.9256 43.8586 31.5221 44.3325C31.1252 44.7951 30.5974 45.1138 29.9389 45.2885C29.2894 45.4608 28.6693 45.4563 28.0788 45.275C27.4973 45.0913 27.1687 44.8598 27.0932 44.5805C27.0615 44.4634 27.0642 44.3661 27.1012 44.2887C27.1449 44.1999 27.2118 44.1435 27.302 44.1196C27.3922 44.0956 27.5344 44.1207 27.7284 44.1947C28.3107 44.4169 28.8634 44.4585 29.3866 44.3197C29.9189 44.1785 30.2864 44.0182 30.4893 43.8389C30.6897 43.6505 30.7631 43.4572 30.7095 43.259C30.6534 43.0518 30.4641 42.8703 30.1415 42.7145C29.8165 42.5497 29.4717 42.419 29.1072 42.3226C28.7517 42.2238 28.4078 42.0785 28.0755 41.8866C27.7432 41.6947 27.5405 41.4637 27.4673 41.1934C27.3381 40.7159 27.5784 40.1211 28.1882 39.4089C28.8045 38.6853 29.3608 38.2577 29.857 38.1261ZM32.9612 35.2458C32.9125 35.0656 32.9383 34.8753 33.0388 34.6748C33.1392 34.4744 33.2616 34.355 33.406 34.3167C33.5593 34.276 33.7897 34.4128 34.0972 34.7272C34.4022 35.0325 34.5876 35.3068 34.6535 35.55C34.6778 35.6401 34.6592 35.732 34.5975 35.8256C34.5358 35.9192 34.4599 35.978 34.3696 36.0019C34.1531 36.0593 33.8742 35.9933 33.5329 35.8039C33.2005 35.612 33.01 35.426 32.9612 35.2458ZM33.4129 37.1827C33.5843 37.1372 33.7747 37.1978 33.9842 37.3643C34.1936 37.5308 34.3251 37.7132 34.3788 37.9114C34.4324 38.1096 34.4625 38.7389 34.4691 39.7993C34.4733 40.8507 34.4427 42.0417 34.3773 43.3723C34.3459 43.8634 34.2129 44.1401 33.9783 44.2023C33.852 44.2359 33.7303 44.215 33.6133 44.1399C33.4938 44.0557 33.417 43.9505 33.3829 43.8244C33.3463 43.6893 33.3218 43.4737 33.3094 43.1776C33.3035 42.8702 33.3004 42.4655 33.2999 41.9635C33.306 41.4501 33.3049 41.0352 33.2966 40.7187C33.2973 40.3999 33.2883 40.045 33.2695 39.6541C33.2483 39.2541 33.2298 38.9356 33.2139 38.6984C33.2047 38.4498 33.1999 38.2 33.1997 37.949C33.2065 37.474 33.2776 37.2186 33.4129 37.1827ZM38.843 35.7421C39.1497 35.6608 39.4847 35.7553 39.848 36.0259C40.2089 36.2874 40.4234 36.5443 40.4917 36.7966C40.5331 36.9498 40.4817 37.0455 40.3374 37.0838C40.2381 37.1101 40.064 37.0742 39.8151 36.9761C39.5637 36.869 39.3298 36.8441 39.1133 36.9016C38.8968 36.959 38.5881 37.1761 38.1872 37.5528C37.7954 37.9271 37.6373 38.2539 37.7129 38.5332C37.769 38.7404 38.2803 38.9862 39.2468 39.2705C39.6161 39.385 39.9698 39.5663 40.3077 39.8146C40.6522 40.0516 40.8733 40.3502 40.9708 40.7106C41.0659 41.0619 40.9117 41.4746 40.5081 41.9486C40.1112 42.4112 39.5835 42.7298 38.9249 42.9045C38.2754 43.0768 37.6553 43.0723 37.0648 42.891C36.4833 42.7074 36.1548 42.4759 36.0792 42.1966C36.0475 42.0795 36.0502 41.9822 36.0872 41.9048C36.1309 41.8159 36.1978 41.7596 36.288 41.7356C36.3782 41.7117 36.5204 41.7367 36.7145 41.8108C37.2967 42.0329 37.8494 42.0746 38.3727 41.9357C38.9049 41.7945 39.2725 41.6343 39.4753 41.4549C39.6757 41.2666 39.7491 41.0733 39.6955 40.8751C39.6394 40.6679 39.4501 40.4864 39.1275 40.3305C38.8025 40.1657 38.4578 40.0351 38.0933 39.9386C37.7378 39.8398 37.3939 39.6945 37.0615 39.5026C36.7292 39.3108 36.5265 39.0797 36.4533 38.8094C36.3241 38.3319 36.5644 37.7371 37.1742 37.0249C37.7906 36.3014 38.3468 35.8738 38.843 35.7421ZM43.6983 40.1897C43.7447 40.3609 43.8671 40.4202 44.0655 40.3675C44.4083 40.2766 44.7977 40.0719 45.2337 39.7534C45.6762 39.4236 45.9245 39.2515 45.9787 39.2372C46.141 39.1941 46.2454 39.2581 46.2917 39.4293C46.3624 39.6906 46.1735 40.0642 45.7248 40.5501C45.2852 41.0337 44.8444 41.3341 44.4024 41.4514C43.9693 41.5662 43.5768 41.5449 43.2247 41.3872C42.8702 41.2205 42.6588 41.0111 42.5906 40.7588C42.5223 40.5066 42.4899 40.1724 42.4933 39.7563C42.4943 39.3311 42.5074 38.7724 42.5328 38.0801C42.5647 37.3764 42.582 36.7973 42.5847 36.3427C42.1875 36.5543 41.9168 36.6792 41.7724 36.7175C41.6281 36.7558 41.4642 36.722 41.2809 36.6162C41.1041 36.4989 40.9975 36.3727 40.9609 36.2376C40.9024 36.0214 41.4327 35.6586 42.5518 35.1493C42.5118 34.3584 42.4138 33.6747 42.2578 33.0981C42.1846 32.8278 42.2383 32.6688 42.4187 32.6209C42.572 32.5802 42.7883 32.629 43.0675 32.7674C43.3442 32.8968 43.5155 33.0831 43.5813 33.3263C43.6472 33.5696 43.6863 34.0179 43.6987 34.6712C44.2007 34.4897 44.6051 34.3583 44.9118 34.2769C45.4531 34.1333 45.7554 34.1786 45.8188 34.4129C45.8554 34.548 45.737 34.7001 45.4637 34.8692C45.1994 35.0359 44.6238 35.3383 43.7368 35.7764C43.7399 36.5384 43.7215 37.4171 43.6815 38.4126C43.6391 39.3992 43.6447 39.9915 43.6983 40.1897ZM49.567 32.8971C49.973 32.7894 50.4034 32.8973 50.8584 33.2208C51.3109 33.5352 51.5823 33.8591 51.6725 34.1925C51.7603 34.5168 51.7377 34.8801 51.6049 35.2822C51.7497 35.3887 51.8355 35.4914 51.8623 35.5905C51.9306 35.8428 51.989 36.2908 52.0375 36.9345C52.095 37.5759 52.1359 37.9947 52.16 38.1911C52.1932 38.3851 52.2166 38.543 52.2302 38.6649C52.2415 38.7778 52.2482 38.8919 52.2504 39.0072C52.2752 39.242 52.2245 39.3762 52.0982 39.4097C51.9358 39.4528 51.7627 39.349 51.5789 39.0985C51.4016 38.8365 51.243 38.4827 51.1031 38.037C50.5757 39.268 49.9692 39.9745 49.2836 40.1564C48.8686 40.2665 48.4106 40.1997 47.9095 39.956C47.4151 39.701 47.1166 39.3843 47.0142 39.0059C46.868 38.4653 46.886 37.746 47.0684 36.8479C47.2483 35.9407 47.5699 35.0926 48.0332 34.3034C48.4964 33.5142 49.0077 33.0455 49.567 32.8971ZM50.8332 35.1104C50.6064 34.2725 50.3262 33.8979 49.9924 33.9864C49.6405 34.0798 49.2983 34.4409 48.9658 35.0699C48.6308 35.6898 48.3862 36.3582 48.2321 37.075C48.078 37.7918 48.051 38.3349 48.1509 38.7043C48.1924 38.8575 48.2897 38.9668 48.4428 39.0324C48.5935 39.089 48.7545 39.0946 48.9259 39.0491C49.3499 38.9366 49.7512 38.526 50.1299 37.8172C50.5061 37.0994 50.687 36.3031 50.6726 35.4282C50.6631 35.2859 50.7178 35.1844 50.8368 35.1239L50.8332 35.1104ZM54.8144 36.1689C55.283 34.4706 55.6916 33.1938 56.0403 32.3385C56.3955 31.4717 56.7446 30.9929 57.0874 30.902C57.4392 30.8086 57.8185 30.906 58.2252 31.194C58.6409 31.4796 58.9048 31.8296 59.0169 32.244C59.1925 32.8927 59.2582 33.725 59.2141 34.7409C59.1409 36.6143 58.8878 37.6084 58.4548 37.7233C58.2563 37.776 58.1205 37.6671 58.0474 37.3969C57.9962 37.2077 57.9873 36.7997 58.0207 36.1728C58.0607 35.5345 58.0863 34.9146 58.0975 34.3129C58.1153 33.6999 58.0864 33.2537 58.0108 32.9744C57.9328 32.6861 57.8304 32.4864 57.7036 32.3752C57.5859 32.2616 57.4819 32.2167 57.3917 32.2407C57.3105 32.2622 57.2321 32.312 57.1565 32.39C57.0809 32.468 57.0016 32.5856 56.9184 32.7428C56.8443 32.8977 56.7747 33.0513 56.7096 33.2038C56.642 33.3472 56.5621 33.5519 56.4697 33.8178C56.3863 34.0813 56.3169 34.3074 56.2616 34.4958C56.2038 34.6753 56.1204 34.9389 56.0114 35.2864C55.9024 35.634 55.819 35.8975 55.7612 36.077C55.7035 36.2565 55.6287 36.4984 55.5371 36.8027C55.4454 37.1071 55.3694 37.3445 55.3092 37.515C55.258 37.6831 55.1969 37.8682 55.126 38.0705C54.9907 38.4637 54.8553 38.6782 54.72 38.7141C54.5937 38.7476 54.418 38.688 54.193 38.5353C53.9655 38.3736 53.8311 38.2161 53.7896 38.063C53.7774 38.0179 53.7761 37.8879 53.7856 37.6729C53.8156 37.1049 53.8307 36.4105 53.8309 35.5897C53.8287 34.7598 53.7038 33.8515 53.4561 32.8647C53.3052 32.1999 53.3109 31.8459 53.4733 31.8028C53.6717 31.7502 53.8982 31.8011 54.1528 31.9557C54.4073 32.1103 54.5687 32.3137 54.637 32.5659C54.7028 32.8092 54.7554 33.307 54.7946 34.0594C54.8405 34.8004 54.847 35.5036 54.8144 36.1689ZM62.4897 35.2045C62.536 35.3756 62.6584 35.4349 62.8569 35.3822C63.1997 35.2913 63.5891 35.0866 64.025 34.7682C64.4676 34.4383 64.7159 34.2662 64.77 34.2519C64.9324 34.2088 65.0368 34.2728 65.0831 34.444C65.1538 34.7053 64.9648 35.0789 64.5162 35.5648C64.0766 36.0484 63.6358 36.3488 63.1937 36.4661C62.7607 36.581 62.3682 36.5596 62.0161 36.4019C61.6616 36.2353 61.4502 36.0258 61.3819 35.7735C61.3137 35.5213 61.2812 35.1871 61.2846 34.771C61.2856 34.3459 61.2988 33.7871 61.3241 33.0948C61.3561 32.3911 61.3734 31.812 61.3761 31.3574C60.9789 31.569 60.7081 31.694 60.5638 31.7323C60.4195 31.7705 60.2556 31.7368 60.0723 31.6309C59.8955 31.5137 59.7888 31.3875 59.7523 31.2523C59.6937 31.0361 60.224 30.6733 61.3432 30.164C61.3032 29.3731 61.2052 28.6894 61.0491 28.1128C60.976 27.8426 61.0296 27.6835 61.21 27.6356C61.3634 27.5949 61.5797 27.6438 61.8588 27.7821C62.1356 27.9115 62.3069 28.0978 62.3727 28.3411C62.4385 28.5843 62.4777 29.0326 62.4901 29.6859C62.9921 29.5044 63.3965 29.373 63.7032 29.2916C64.2445 29.148 64.5468 29.1934 64.6102 29.4276C64.6468 29.5627 64.5284 29.7149 64.2551 29.8839C63.9908 30.0506 63.4151 30.353 62.5281 30.7911C62.5313 31.5531 62.5129 32.4318 62.4729 33.4274C62.4305 34.4139 62.4361 35.0062 62.4897 35.2045ZM72.9858 33.8973C72.8685 33.9284 72.719 33.8763 72.5374 33.741C72.3557 33.6057 72.2503 33.4841 72.221 33.3759C72.1918 33.2678 72.1796 33.0441 72.1845 32.7049C72.1967 30.9636 72.1901 29.7245 72.1647 28.9877C71.8012 29.1807 71.5472 29.2964 71.4029 29.3347C71.2586 29.373 71.0972 29.3482 70.9187 29.2603C70.7402 29.1725 70.6303 29.052 70.5888 28.8989C70.5474 28.7457 70.7138 28.5567 71.088 28.3319C71.5771 28.0669 71.916 27.8901 72.1047 27.8014C72.0779 27.3451 72.0554 26.9938 72.0371 26.7476C71.9171 25.4468 71.9677 24.4726 72.1889 23.825C72.41 23.1773 72.8363 22.7697 73.4678 22.6021C73.9189 22.4825 74.3375 22.5645 74.7237 22.8483C75.1075 23.1231 75.3652 23.5037 75.4969 23.9902C75.6261 24.4677 75.5644 24.74 75.3118 24.807C75.0953 24.8644 74.8536 24.6678 74.5866 24.2172C74.4927 24.049 74.3709 23.9027 74.2212 23.7782C74.0715 23.6538 73.92 23.6119 73.7666 23.6526C73.6133 23.6933 73.4929 23.8025 73.4056 23.9801C73.3159 24.1488 73.2568 24.3769 73.2283 24.6645C73.1641 25.4636 73.1641 26.1782 73.2283 26.8081L73.248 27.3098C73.5696 27.1762 73.8928 27.0664 74.2175 26.9802C74.5513 26.8917 74.8001 26.8643 74.964 26.8981C75.1369 26.9294 75.2379 26.9992 75.2672 27.1073C75.3135 27.2785 75.2 27.4486 74.9267 27.6177C74.6534 27.7867 74.1032 28.0582 73.2762 28.4321C73.3378 31.1967 73.3185 32.8579 73.218 33.4156C73.1624 33.7104 73.085 33.8709 72.9858 33.8973ZM79.9862 27.2893C79.9033 26.983 79.7757 26.7078 79.6033 26.4639C79.4285 26.2109 79.2293 26.0465 79.0057 25.9706C78.4295 26.307 78.0232 26.9314 77.7867 27.8438C77.5568 28.7449 77.5357 29.5423 77.7234 30.236C77.9112 30.9297 78.1996 31.3167 78.5888 31.3969C79.2041 31.0985 79.635 30.511 79.8812 29.6346C80.1341 28.7468 80.1691 27.965 79.9862 27.2893ZM76.4602 28.3551C76.5858 27.5686 76.8402 26.8831 77.2235 26.2986C77.6134 25.7027 78.0744 25.3342 78.6067 25.193C79.148 25.0494 79.6612 25.1594 80.1464 25.5232C80.6292 25.8779 80.9595 26.3841 81.1375 27.0418C81.3131 27.6905 81.3356 28.399 81.2052 29.1675C81.0723 29.9269 80.7871 30.6061 80.3497 31.2049C79.9189 31.7924 79.3923 32.1687 78.7698 32.3338C78.3097 32.4559 77.869 32.3459 77.4477 32.0038C77.0264 31.6618 76.7279 31.1664 76.5524 30.5177C76.3744 29.8601 76.3437 29.1392 76.4602 28.3551ZM82.6676 25.8827L82.3527 24.8799C82.2381 24.4565 82.28 24.2184 82.4785 24.1658C82.6499 24.1203 82.8428 24.1899 83.0571 24.3744C83.278 24.5475 83.4299 24.7873 83.5128 25.0936C83.5932 25.3909 83.6452 25.6185 83.6686 25.7765C84.1316 24.379 84.7149 23.587 85.4186 23.4003C85.8606 23.283 86.1109 23.3325 86.1694 23.5487C86.1987 23.6568 86.1759 23.7691 86.101 23.8855C86.0262 24.0019 85.8963 24.1474 85.7115 24.322C85.2895 24.656 84.9701 25.0836 84.7533 25.6046C84.5431 26.1141 84.4075 26.6667 84.3463 27.2623C84.2851 27.8579 84.2413 28.3572 84.215 28.7601C84.1976 29.1606 84.1855 29.4728 84.1784 29.6968C84.1713 29.9207 84.154 30.1426 84.1265 30.3623C84.0796 30.761 83.9615 30.9854 83.7721 31.0357C83.6187 31.0764 83.4692 31.0243 83.3237 30.8795C83.1847 30.7232 83.0933 30.564 83.0494 30.4018C83.0031 30.2307 82.9895 29.877 83.0088 29.3408C83.0715 28.1075 82.9577 26.9548 82.6676 25.8827ZM46.5077 59.5442C46.3905 59.5753 46.241 59.5233 46.0594 59.388C45.8777 59.2527 45.7723 59.131 45.743 59.0229C45.7138 58.9148 45.7016 58.6911 45.7064 58.3518C45.7186 56.6105 45.7121 55.3715 45.6867 54.6347C45.3232 54.8277 45.0692 54.9433 44.9249 54.9816C44.7806 55.0199 44.6191 54.9951 44.4407 54.9073C44.2622 54.8195 44.1522 54.699 44.1108 54.5458C44.0693 54.3927 44.2357 54.2037 44.61 53.9788C45.0991 53.7139 45.438 53.5371 45.6267 53.4484C45.5999 52.992 45.5774 52.6407 45.5591 52.3945C45.4391 51.0938 45.4897 50.1196 45.7109 49.4719C45.932 48.8242 46.3583 48.4166 46.9898 48.2491C47.4409 48.1294 47.8595 48.2115 48.2457 48.4953C48.6295 48.77 48.8872 49.1507 49.0188 49.6372C49.1481 50.1147 49.0864 50.3869 48.8338 50.4539C48.6173 50.5114 48.3755 50.3148 48.1086 49.8642C48.0147 49.696 47.8929 49.5496 47.7432 49.4252C47.5935 49.3008 47.442 49.2589 47.2886 49.2996C47.1352 49.3403 47.0149 49.4494 46.9276 49.6271C46.8379 49.7957 46.7788 50.0238 46.7502 50.3114C46.6861 51.1106 46.6861 51.8251 46.7502 52.4551L46.77 52.9568C47.0916 52.8232 47.4148 52.7133 47.7395 52.6272C48.0733 52.5386 48.3221 52.5112 48.486 52.545C48.6588 52.5764 48.7599 52.6461 48.7892 52.7543C48.8355 52.9254 48.722 53.0956 48.4487 53.2646C48.1754 53.4337 47.6252 53.7052 46.7981 54.0791C46.8598 56.8437 46.8404 58.5048 46.74 59.0626C46.6844 59.3573 46.607 59.5179 46.5077 59.5442ZM50.0579 53.1563L49.743 52.1536C49.6284 51.7301 49.6704 51.4921 49.8688 51.4394C50.0402 51.394 50.2331 51.4635 50.4474 51.6481C50.6683 51.8212 50.8202 52.0609 50.9031 52.3672C50.9836 52.6645 51.0355 52.8922 51.0589 53.0501C51.5219 51.6527 52.1053 50.8606 52.8089 50.6739C53.251 50.5567 53.5012 50.6061 53.5598 50.8224C53.589 50.9305 53.5662 51.0427 53.4914 51.1592C53.4165 51.2756 53.2867 51.4211 53.1019 51.5956C52.6798 51.9297 52.3604 52.3572 52.1437 52.8782C51.9335 53.3878 51.7978 53.9404 51.7366 54.536C51.6754 55.1316 51.6316 55.6308 51.6053 56.0337C51.588 56.4342 51.5758 56.7464 51.5687 56.9704C51.5617 57.1944 51.5443 57.4162 51.5168 57.636C51.47 58.0346 51.3519 58.2591 51.1624 58.3094C51.009 58.35 50.8596 58.298 50.714 58.1531C50.575 57.9969 50.4836 57.8377 50.4397 57.6755C50.3934 57.5043 50.3799 57.1506 50.3991 56.6144C50.4618 55.3811 50.3481 54.2284 50.0579 53.1563ZM59.2859 51.3455C59.4152 51.823 59.2596 52.2843 58.8193 52.7294C58.3855 53.1631 57.8394 53.4674 57.1808 53.6421C56.5313 53.8144 55.9209 53.8991 55.3496 53.8961C55.3306 54.326 55.3638 54.6987 55.4491 55.014C55.532 55.3203 55.6913 55.5339 55.9271 55.6548C56.1719 55.7734 56.5153 55.774 56.9574 55.6567C57.4084 55.537 57.8478 55.3384 58.2754 55.0608C58.7097 54.7718 58.9494 54.6213 58.9945 54.6093C59.229 54.5471 59.3707 54.6061 59.4194 54.7863C59.4853 55.0295 59.282 55.3683 58.8098 55.8026C58.335 56.2278 57.8361 56.5099 57.3128 56.6487C56.6092 56.8354 55.9803 56.7801 55.4261 56.483C54.8694 56.1768 54.5046 55.7039 54.3314 55.0643C54.1583 54.4246 54.1493 53.7125 54.3044 52.9278C54.457 52.1341 54.7394 51.4267 55.1514 50.8057C55.5635 50.1846 56.0356 49.8034 56.5679 49.6622C57.1001 49.521 57.651 49.6452 58.2206 50.0349C58.7992 50.4221 59.1543 50.859 59.2859 51.3455ZM56.9245 50.7119C56.5907 50.8004 56.2909 51.0682 56.0251 51.5153C55.7569 51.9534 55.566 52.4627 55.4524 53.0433C55.8352 53.0286 56.2566 52.9603 56.7167 52.8382C57.1768 52.7161 57.5587 52.5376 57.8625 52.3025C58.1639 52.0584 58.2817 51.8147 58.2158 51.5715C58.15 51.3282 57.9702 51.1104 57.6764 50.9179C57.3916 50.7231 57.141 50.6544 56.9245 50.7119ZM65.3779 49.7293C65.5072 50.2068 65.3516 50.6681 64.9113 51.1132C64.4775 51.547 63.9314 51.8512 63.2728 52.0259C62.6233 52.1982 62.0129 52.2829 61.4416 52.2799C61.4226 52.7099 61.4558 53.0825 61.5411 53.3978C61.624 53.7041 61.7833 53.9177 62.0191 54.0386C62.2639 54.1572 62.6073 54.1578 63.0494 54.0405C63.5004 53.9209 63.9398 53.7222 64.3674 53.4446C64.8017 53.1556 65.0413 53.0051 65.0865 52.9931C65.321 52.9309 65.4627 52.9899 65.5114 53.1701C65.5773 53.4133 65.374 53.7521 64.9018 54.1864C64.427 54.6117 63.9281 54.8937 63.4048 55.0325C62.7012 55.2192 62.0723 55.164 61.5181 54.8668C60.9614 54.5606 60.5965 54.0877 60.4234 53.4481C60.2503 52.8084 60.2413 52.0963 60.3964 51.3116C60.549 50.5179 60.8314 49.8106 61.2434 49.1895C61.6555 48.5684 62.1276 48.1872 62.6599 48.046C63.1921 47.9048 63.743 48.029 64.3126 48.4187C64.8912 48.8059 65.2463 49.2428 65.3779 49.7293ZM63.0164 49.0957C62.6827 49.1842 62.3829 49.4521 62.1171 49.8992C61.8489 50.3372 61.658 50.8465 61.5444 51.4271C61.9272 51.4124 62.3486 51.3441 62.8087 51.222C63.2688 51.1 63.6507 50.9214 63.9545 50.6863C64.2559 50.4422 64.3737 50.1985 64.3078 49.9553C64.242 49.712 64.0622 49.4942 63.7684 49.3018C63.4836 49.1069 63.233 49.0382 63.0164 49.0957Z" fill="url(#paint0_linear_5_5159)"/>
<defs>
<linearGradient id="paint0_linear_5_5159" x1="5.41798" y1="47.8915" x2="95.0511" y2="23.6342" gradientUnits="userSpaceOnUse">
<stop stop-color="#2253FF"/>
<stop offset="1" stop-color="#43D2FF"/>
</linearGradient>
</defs>
</svg>
