<svg width="25" height="24" viewBox="0 0 25 24" fill="none" xmlns="http://www.w3.org/2000/svg">
<g clip-path="url(#clip0_5_5230)">
<path d="M24.0531 12C24.0531 14.3687 23.35 16.6721 22.0199 18.6616C21.8392 18.932 21.5422 19.0781 21.2397 19.0781C21.0606 19.0781 20.8795 19.027 20.7195 18.9199C20.289 18.6323 20.1735 18.05 20.4612 17.6195C21.5845 15.9395 22.1781 13.9964 22.1781 12C22.1781 11.1422 22.0708 10.2902 21.8592 9.46802C21.7301 8.96668 22.032 8.45545 22.5334 8.32636C23.0351 8.19745 23.5459 8.49921 23.675 9.00055C23.9259 9.97541 24.0531 10.9845 24.0531 12ZM17.2907 20.6669C15.716 21.6207 13.9049 22.125 12.0531 22.125C6.47024 22.125 1.92812 17.5829 1.92812 12C1.92812 6.41712 6.47024 1.875 12.0531 1.875C14.1202 1.875 16.1078 2.49353 17.8014 3.66376C18.2273 3.95801 18.8112 3.85126 19.1056 3.42536C19.3999 2.99945 19.2933 2.41553 18.8672 2.12109C16.8589 0.733521 14.5027 0 12.0531 0C8.84787 0 5.83431 1.24823 3.56783 3.51471C1.30135 5.78119 0.0531235 8.79474 0.0531235 12C0.0531235 15.2053 1.30135 18.2188 3.56783 20.4853C5.83431 22.7518 8.84787 24 12.0531 24C14.2475 24 16.3946 23.402 18.2622 22.2706C18.7052 22.0023 18.8467 21.4259 18.5785 20.983C18.31 20.54 17.7336 20.3987 17.2907 20.6669ZM12.1436 14.7184C11.9951 14.7242 11.8565 14.6715 11.7488 14.569L6.83883 9.91352C6.4631 9.55719 5.86965 9.57294 5.51351 9.94867C5.15719 10.3244 5.17294 10.9179 5.54867 11.274L10.4577 15.9287C10.9111 16.3597 11.4976 16.5938 12.119 16.5938C12.1524 16.5938 12.1857 16.593 12.219 16.5917C12.8773 16.5652 13.4819 16.2803 13.9214 15.7894C13.9325 15.7771 13.9431 15.7645 13.9536 15.7515L23.8462 3.44678C24.1707 3.04321 24.1066 2.45306 23.703 2.12878C23.2997 1.80432 22.7093 1.86841 22.3849 2.27197L12.5116 14.5527C12.4146 14.6539 12.2846 14.7127 12.1436 14.7184Z" fill="url(#paint0_linear_5_5230)"/>
</g>
<defs>
<linearGradient id="paint0_linear_5_5230" x1="0.0531237" y1="12" x2="24.0532" y2="12" gradientUnits="userSpaceOnUse">
<stop stop-color="#7122FF"/>
<stop offset="1" stop-color="#8643FF"/>
</linearGradient>
<clipPath id="clip0_5_5230">
<rect width="24" height="24" fill="white" transform="translate(0.0999985)"/>
</clipPath>
</defs>
</svg>
