<svg width="65" height="46" viewBox="0 0 65 46" fill="none" xmlns="http://www.w3.org/2000/svg">
<path d="M9.65527 6.4394C8.7512 7.85074 8.25528 8.71858 8.1675 9.04291C8.13825 9.15102 8.14544 9.24949 8.18908 9.33832C8.24418 9.42053 8.32586 9.47599 8.43412 9.50471C9.47156 9.77994 10.6624 9.91722 12.0065 9.91655C12.4418 9.91614 12.6909 9.92431 12.7541 9.94106C12.8894 9.97696 12.9315 10.0895 12.8803 10.2787C12.7925 10.603 12.2016 10.8035 11.1076 10.8802C10.0226 10.9593 9.01551 10.8756 8.08631 10.6291C7.67134 10.519 7.33889 10.3005 7.08898 9.97345C6.84808 9.64882 6.77762 9.30182 6.87758 8.93244C6.97755 8.56306 7.27903 7.96712 7.78202 7.14461C8.29404 6.3245 8.8219 5.44582 9.36561 4.50858C9.90933 3.57135 10.2751 2.75587 10.4628 2.06216C10.4896 1.96306 10.5357 1.86424 10.601 1.7657C10.8446 1.47305 11.873 1.56725 13.6863 2.0483C15.4996 2.52935 16.3709 2.90052 16.3002 3.16178C16.2514 3.34197 16.0245 3.41214 15.6195 3.37229C15.2777 3.3492 14.8288 3.29288 14.2729 3.20333C13.7285 3.10718 13.3444 3.04389 13.1205 3.01348C12.8991 2.97406 12.354 2.91633 11.485 2.84029L11.474 2.88083C11.3082 3.49346 10.8914 4.37263 10.2236 5.51835C10.2753 5.54172 10.4545 5.59409 10.7612 5.67546C11.077 5.75923 11.5026 5.84799 12.038 5.94176C12.5734 6.03552 12.9719 6.11711 13.2335 6.18652C13.5042 6.25831 13.6224 6.35728 13.5883 6.48341C13.503 6.79873 13.0697 6.93485 12.2885 6.89175C11.5073 6.84866 10.6296 6.69787 9.65527 6.4394ZM15.9752 10.2018C17.2387 8.96302 18.2374 8.05958 18.9713 7.49145C19.7166 6.9167 20.2607 6.6748 20.6035 6.76575C20.9553 6.85909 21.2346 7.13113 21.4414 7.58188C21.6572 8.03503 21.709 8.46881 21.5968 8.88324C21.4213 9.5319 21.0579 10.2852 20.5066 11.1432C19.4972 12.7294 18.776 13.465 18.343 13.3502C18.1445 13.2975 18.0818 13.136 18.155 12.8658C18.2062 12.6766 18.4045 12.3188 18.75 11.7925C19.107 11.2595 19.4422 10.7353 19.7558 10.2198C20.0808 9.6977 20.2811 9.297 20.3566 9.01772C20.4347 8.72942 20.4469 8.50574 20.3932 8.34666C20.3486 8.18999 20.2812 8.09968 20.191 8.07575C20.1098 8.05421 20.0168 8.0585 19.9119 8.08862C19.8071 8.11874 19.679 8.18131 19.5275 8.27633C19.3852 8.37374 19.2473 8.47234 19.1139 8.57215C18.983 8.66294 18.8104 8.80061 18.596 8.98516C18.3907 9.17209 18.2165 9.33348 18.0734 9.46932C17.9327 9.59615 17.7274 9.78309 17.4575 10.0301C17.1876 10.2772 16.9823 10.4641 16.8416 10.591C16.701 10.7178 16.5141 10.8903 16.281 11.1085C16.0479 11.3267 15.8622 11.4947 15.724 11.6125C15.5948 11.7327 15.4484 11.8629 15.2848 12.0029C14.969 12.2764 14.7435 12.3952 14.6082 12.3593C14.4819 12.3258 14.3598 12.1872 14.2421 11.9436C14.1267 11.6909 14.0898 11.4879 14.1313 11.3348C14.1434 11.2897 14.2079 11.1765 14.3247 10.995C14.6375 10.518 15.0013 9.92408 15.416 9.21334C15.8332 8.49359 16.1837 7.64511 16.4675 6.66789C16.6726 6.01739 16.8563 5.71368 17.0187 5.75676C17.2171 5.80941 17.3875 5.96567 17.5299 6.22554C17.6723 6.48541 17.7094 6.74147 17.6411 6.99373C17.5753 7.23698 17.3694 7.69412 17.0234 8.36517C16.6889 9.02959 16.3395 9.6418 15.9752 10.2018ZM23.1093 13.1662C23.063 13.3374 23.139 13.4493 23.3375 13.502C23.6803 13.5929 24.1209 13.6084 24.6593 13.5485C25.2091 13.4819 25.511 13.4558 25.5652 13.4701C25.7275 13.5132 25.7856 13.6204 25.7392 13.7915C25.6685 14.0528 25.3162 14.2828 24.6823 14.4816C24.0574 14.6827 23.5239 14.7246 23.0819 14.6074C22.6489 14.4925 22.3197 14.2796 22.0944 13.9688C21.8716 13.649 21.7943 13.3629 21.8625 13.1107C21.9308 12.8584 22.0715 12.5529 22.2846 12.1943C22.5001 11.8266 22.7937 11.3492 23.1653 10.7622C23.5483 10.1686 23.8557 9.67564 24.0876 9.28332C23.6368 9.26994 23.3392 9.2441 23.1949 9.20581C23.0505 9.16751 22.9257 9.05715 22.8204 8.87471C22.7265 8.68565 22.6978 8.52355 22.7344 8.38841C22.7929 8.17219 23.4354 8.12054 24.6618 8.23347C25.0266 7.52878 25.2869 6.88814 25.443 6.31155C25.5161 6.04127 25.6429 5.93007 25.8233 5.97793C25.9767 6.01862 26.1393 6.16798 26.3112 6.42602C26.4856 6.67504 26.5398 6.92118 26.474 7.16443C26.4081 7.40768 26.2157 7.81528 25.8965 8.38722C26.4229 8.47859 26.8395 8.56496 27.1462 8.64634C27.6875 8.78993 27.9264 8.97885 27.863 9.21309C27.8264 9.34823 27.6471 9.42136 27.325 9.43247C27.012 9.44598 26.3607 9.42288 25.3713 9.36317C24.9893 10.0246 24.5295 10.7766 23.9922 11.6189C23.4572 12.4523 23.1629 12.968 23.1093 13.1662ZM33.0672 12.4767C32.9379 12.9542 32.5703 13.2767 31.9641 13.4442C31.3695 13.605 30.7428 13.5981 30.0843 13.4234C29.4348 13.2511 28.8634 13.0223 28.3701 12.7369C28.1366 13.0998 27.9771 13.4389 27.8918 13.7543C27.8089 14.0606 27.839 14.3244 27.9821 14.5459C28.1342 14.7697 28.4313 14.9403 28.8734 15.0575C29.3244 15.1772 29.8052 15.2227 30.3158 15.194C30.8378 15.1586 31.1214 15.147 31.1665 15.1589C31.401 15.2212 31.4939 15.3424 31.4452 15.5226C31.3793 15.7658 31.0323 15.9586 30.4039 16.1009C29.7781 16.2342 29.2035 16.2314 28.6803 16.0926C27.9766 15.9059 27.4598 15.5467 27.13 15.015C26.8025 14.4743 26.7253 13.8842 26.8984 13.2445C27.0716 12.6048 27.4234 11.9836 27.9539 11.3809C28.4869 10.7691 29.0887 10.2963 29.7592 9.96236C30.4297 9.62847 31.031 9.53213 31.5633 9.67334C32.0955 9.81454 32.5099 10.1948 32.8064 10.8142C33.1119 11.436 33.1988 11.9902 33.0672 12.4767ZM31.342 10.7589C31.0082 10.6703 30.6134 10.7539 30.1574 11.0095C29.7039 11.2561 29.2814 11.6027 28.8898 12.0492C29.2287 12.226 29.6282 12.3754 30.0883 12.4975C30.5484 12.6196 30.9694 12.654 31.3512 12.6008C31.7354 12.5386 31.9605 12.3858 32.0263 12.1426C32.0921 11.8993 32.0464 11.6217 31.8892 11.3096C31.7409 10.9999 31.5585 10.8163 31.342 10.7589ZM34.7328 12.2812L34.9665 11.2569C35.0811 10.8335 35.2376 10.6481 35.436 10.7008C35.6075 10.7462 35.7394 10.9019 35.8318 11.1679C35.9356 11.4272 35.9461 11.71 35.8632 12.0163C35.7828 12.3136 35.7128 12.5364 35.6533 12.6848C36.76 11.7038 37.6652 11.3066 38.3688 11.4933C38.8109 11.6106 39.0026 11.7773 38.9441 11.9935C38.9148 12.1017 38.8384 12.1876 38.7148 12.2514C38.5912 12.3151 38.4053 12.3768 38.1571 12.4365C37.6229 12.5169 37.1303 12.729 36.6795 13.0729C36.2402 13.4102 35.8436 13.8216 35.4898 14.3071C35.136 14.7926 34.846 15.2033 34.6198 15.5392C34.4025 15.8774 34.2343 16.1418 34.1151 16.3323C33.9958 16.5227 33.8688 16.7063 33.734 16.8829C33.4921 17.205 33.2764 17.3409 33.087 17.2907C32.9336 17.25 32.8305 17.1309 32.7776 16.9334C32.7361 16.7293 32.7374 16.5461 32.7813 16.384C32.8276 16.2128 32.9945 15.8998 33.2819 15.445C33.959 14.4079 34.4426 13.3533 34.7328 12.2812ZM43.2827 12.739C43.6706 12.8419 43.9374 13.1782 44.0829 13.7479C44.2375 14.32 44.2429 14.8718 44.099 15.4034C43.9576 15.9259 43.6616 16.4123 43.2111 16.8625C42.7629 17.3036 42.2572 17.6716 41.694 17.9663C41.1308 18.2611 40.5363 18.4751 39.9104 18.6084C39.296 18.7351 38.7587 18.7374 38.2986 18.6153C38.1182 18.5675 37.9529 18.4995 37.8027 18.4114C37.7252 18.5549 37.5876 18.813 37.3902 19.1854C37.1927 19.5579 37.027 19.8664 36.8931 20.1109C36.7593 20.3554 36.6115 20.6156 36.4499 20.8914C36.1217 21.4609 35.8945 21.7289 35.7682 21.6954C35.6419 21.6619 35.5379 21.5281 35.4562 21.294C35.3631 21.0665 35.3372 20.8762 35.3787 20.723C35.4201 20.5699 35.7424 19.9505 36.3456 18.8649C38.1601 15.59 39.2319 13.3445 39.5611 12.1283C39.6342 11.858 39.77 11.7492 39.9685 11.8018C40.1309 11.8449 40.2919 12.018 40.4516 12.3211C40.6228 12.6175 40.6694 12.9099 40.5913 13.1982C40.5523 13.3424 40.4916 13.4952 40.4092 13.6568C41.4949 12.8248 42.4528 12.5188 43.2827 12.739ZM38.4486 17.5254C38.9267 17.6522 39.4848 17.6265 40.1229 17.4481C40.77 17.2722 41.3594 16.9699 41.8911 16.5413C42.4344 16.106 42.7779 15.6226 42.9218 15.0911C43.1241 14.3433 43.0494 13.9227 42.6976 13.8294C42.3457 13.7361 41.7859 13.911 41.0182 14.3543C40.2594 14.8 39.5737 15.4581 38.9609 16.3288L38.3132 17.4895L38.4486 17.5254ZM45.6746 15.1841L45.9083 14.1598C46.0229 13.7363 46.1794 13.5509 46.3779 13.6036C46.5493 13.6491 46.6812 13.8048 46.7736 14.0707C46.8774 14.33 46.8879 14.6128 46.805 14.9191C46.7246 15.2164 46.6546 15.4392 46.5951 15.5876C47.7018 14.6066 48.607 14.2094 49.3106 14.3961C49.7527 14.5134 49.9444 14.6801 49.8859 14.8964C49.8567 15.0045 49.7802 15.0904 49.6566 15.1542C49.533 15.2179 49.3471 15.2797 49.0989 15.3393C48.5647 15.4197 48.0721 15.6318 47.6213 15.9757C47.182 16.313 46.7854 16.7244 46.4316 17.2099C46.0778 17.6954 45.7878 18.1061 45.5616 18.442C45.3443 18.7802 45.1761 19.0446 45.0569 19.2351C44.9376 19.4255 44.8106 19.6091 44.6758 19.7858C44.4339 20.1078 44.2183 20.2437 44.0288 20.1935C43.8754 20.1528 43.7723 20.0337 43.7194 19.8362C43.678 19.6321 43.6792 19.4489 43.7231 19.2868C43.7694 19.1156 43.9363 18.8026 44.2237 18.3478C44.9008 17.3107 45.3844 16.2562 45.6746 15.1841ZM52.04 13.049C52.0888 12.8688 52.2073 12.7168 52.3955 12.5929C52.5838 12.469 52.75 12.4262 52.8944 12.4645C53.0477 12.5052 53.1782 12.7378 53.2857 13.1622C53.3957 13.5776 53.4177 13.907 53.3519 14.1502C53.3275 14.2403 53.265 14.3106 53.1643 14.3611C53.0636 14.4117 52.9681 14.425 52.8779 14.401C52.6614 14.3436 52.4532 14.1484 52.2533 13.8153C52.0624 13.4846 51.9913 13.2292 52.04 13.049ZM51.4531 14.95C51.6245 14.9955 51.7588 15.1422 51.8561 15.3901C51.9534 15.638 51.9752 15.861 51.9216 16.0592C51.8679 16.2574 51.5762 16.8173 51.0464 17.7389C50.519 18.6516 49.891 19.6678 49.1625 20.7878C48.8873 21.1976 48.6323 21.3713 48.3978 21.3091C48.2715 21.2756 48.1766 21.1973 48.1133 21.0743C48.0523 20.9422 48.0389 20.8132 48.073 20.687C48.1096 20.5519 48.1972 20.3531 48.336 20.0905C48.4862 19.8214 48.6878 19.4693 48.9409 19.0343C49.2054 18.5927 49.414 18.2329 49.5666 17.9547C49.7283 17.6789 49.8997 17.3671 50.0809 17.0193C50.2644 16.6625 50.4093 16.3774 50.5153 16.1641C50.6329 15.9443 50.7549 15.7256 50.8814 15.5081C51.1272 15.1001 51.3177 14.9141 51.4531 14.95ZM56.8832 16.3906C57.1899 16.472 57.4322 16.7197 57.6102 17.1339C57.7906 17.539 57.8467 17.8677 57.7785 18.12C57.737 18.2731 57.6441 18.3306 57.4998 18.2923C57.4005 18.266 57.2679 18.1487 57.1019 17.9405C56.9383 17.7233 56.7482 17.5859 56.5317 17.5285C56.3152 17.4711 55.9382 17.5063 55.4009 17.6341C54.8725 17.7643 54.5705 17.969 54.495 18.2483C54.4389 18.4555 54.7576 18.9215 55.451 19.6462C55.7131 19.9281 55.9278 20.2603 56.095 20.6426C56.2737 21.0183 56.3143 21.3864 56.2168 21.7468C56.1217 22.0981 55.7798 22.3792 55.1909 22.5899C54.6136 22.794 53.9956 22.8087 53.3371 22.634C52.6875 22.4616 52.1529 22.1508 51.733 21.7015C51.3222 21.2545 51.1545 20.8914 51.2301 20.6121C51.2618 20.495 51.3133 20.4121 51.3845 20.3634C51.4671 20.308 51.5535 20.2923 51.6438 20.3163C51.734 20.3402 51.8444 20.4323 51.9751 20.5925C52.3672 21.0731 52.8248 21.3828 53.348 21.5216C53.8803 21.6628 54.2796 21.706 54.5458 21.6511C54.8145 21.5872 54.9757 21.4561 55.0293 21.2579C55.0854 21.0507 55.0131 20.7998 54.8124 20.5051C54.6142 20.2015 54.3816 19.9177 54.1146 19.6537C53.8566 19.3922 53.6322 19.0961 53.4413 18.7654C53.2504 18.4347 53.1915 18.1342 53.2647 17.864C53.3939 17.3865 53.9024 16.9903 54.7901 16.6754C55.6893 16.3539 56.387 16.259 56.8832 16.3906ZM63.5668 20.5681C63.4376 21.0456 63.0699 21.3681 62.4638 21.5356C61.8691 21.6965 61.2425 21.6896 60.5839 21.5149C59.9344 21.3425 59.363 21.1137 58.8698 20.8284C58.6362 21.1913 58.4767 21.5304 58.3914 21.8457C58.3085 22.152 58.3386 22.4159 58.4817 22.6373C58.6339 22.8611 58.931 23.0317 59.373 23.149C59.8241 23.2686 60.3049 23.3141 60.8154 23.2854C61.3374 23.2501 61.621 23.2384 61.6661 23.2504C61.9007 23.3126 61.9936 23.4338 61.9448 23.614C61.879 23.8572 61.5319 24.05 60.9036 24.1923C60.2777 24.3256 59.7031 24.3229 59.1799 24.184C58.4762 23.9974 57.9595 23.6382 57.6296 23.1065C57.3021 22.5658 57.225 21.9756 57.3981 21.3359C57.5712 20.6963 57.923 20.0751 58.4536 19.4723C58.9865 18.8605 59.5883 18.3877 60.2588 18.0538C60.9293 17.7199 61.5307 17.6236 62.0629 17.7648C62.5952 17.906 63.0095 18.2863 63.306 18.9057C63.6115 19.5275 63.6984 20.0816 63.5668 20.5681ZM61.8416 18.8503C61.5079 18.7618 61.113 18.8453 60.6571 19.1009C60.2036 19.3475 59.781 19.6941 59.3895 20.1406C59.7284 20.3174 60.1279 20.4669 60.5879 20.5889C61.048 20.711 61.469 20.7454 61.8508 20.6922C62.235 20.63 62.4601 20.4773 62.5259 20.234C62.5918 19.9908 62.546 19.7131 62.3888 19.401C62.2405 19.0913 62.0582 18.9078 61.8416 18.8503ZM24.454 26.3663C24.8419 26.4692 25.1087 26.8055 25.2542 27.3752C25.4088 27.9473 25.4142 28.4991 25.2703 29.0306C25.1289 29.5532 24.8329 30.0395 24.3823 30.4897C23.9342 30.9309 23.4285 31.2988 22.8653 31.5936C22.3021 31.8883 21.7075 32.1024 21.0817 32.2357C20.4672 32.3623 19.93 32.3647 19.4699 32.2426C19.2895 32.1947 19.1242 32.1267 18.974 32.0386C18.8964 32.1822 18.7589 32.4402 18.5614 32.8127C18.3639 33.1852 18.1983 33.4937 18.0644 33.7382C17.9306 33.9827 17.7828 34.2428 17.6211 34.5186C17.293 35.0881 17.0657 35.3562 16.9394 35.3227C16.8131 35.2892 16.7091 35.1554 16.6275 34.9212C16.5343 34.6938 16.5085 34.5034 16.5499 34.3503C16.5914 34.1971 16.9137 33.5777 17.5169 32.4921C19.3314 29.2173 20.4032 26.9718 20.7324 25.7555C20.8055 25.4852 20.9413 25.3764 21.1398 25.4291C21.3022 25.4721 21.4632 25.6452 21.6229 25.9483C21.7941 26.2448 21.8406 26.5372 21.7626 26.8255C21.7236 26.9696 21.6629 27.1225 21.5805 27.2841C22.6662 26.452 23.624 26.1461 24.454 26.3663ZM19.6198 31.1526C20.098 31.2795 20.6561 31.2537 21.2941 31.0754C21.9412 30.8994 22.5307 30.5971 23.0624 30.1685C23.6056 29.7333 23.9492 29.2499 24.093 28.7183C24.2954 27.9705 24.2207 27.55 23.8688 27.4566C23.517 27.3633 22.9572 27.5383 22.1894 27.9815C21.4307 28.4272 20.7449 29.0854 20.1322 29.956L19.4845 31.1167L19.6198 31.1526ZM29.8627 25.0057C29.4043 26.6995 28.4576 28.8044 27.0225 31.3205C26.074 33.0387 25.5096 33.8739 25.3292 33.826C25.2029 33.7925 25.0809 33.6539 24.9631 33.4102C24.8543 33.169 24.8146 32.9943 24.8439 32.8861C24.8731 32.778 25.1551 32.2542 25.6898 31.3145C26.2245 30.3749 26.8213 29.2055 27.4804 27.8064C28.1419 26.3983 28.6323 25.1042 28.9517 23.924C28.9858 23.7978 29.0282 23.7125 29.079 23.668C29.1297 23.6236 29.2137 23.6169 29.3309 23.648C29.4482 23.6791 29.5798 23.854 29.7256 24.1727C29.8828 24.4848 29.9285 24.7625 29.8627 25.0057ZM33.3965 28.7821C33.8025 28.8898 34.1208 29.1964 34.3514 29.7017C34.5845 30.1981 34.6559 30.6129 34.5657 30.9463C34.478 31.2706 34.275 31.574 33.9568 31.8566C34.0285 32.0204 34.0509 32.1519 34.0241 32.251C33.9558 32.5033 33.7802 32.9201 33.4971 33.5017C33.223 34.0856 33.0469 34.4685 32.9686 34.6505C32.8994 34.8349 32.8399 34.9833 32.7901 35.0957C32.7428 35.199 32.691 35.3011 32.6347 35.402C32.5377 35.6177 32.426 35.7088 32.2997 35.6753C32.1373 35.6322 32.0398 35.4566 32.0071 35.1486C31.9859 34.834 32.0272 34.4491 32.1311 33.9938C31.0527 34.7989 30.1707 35.1104 29.4851 34.9286C29.0701 34.8185 28.7072 34.5339 28.3963 34.0748C28.0969 33.6091 27.9984 33.1871 28.1008 32.8087C28.2471 32.2682 28.626 31.6541 29.2375 30.9666C29.8514 30.2701 30.5582 29.6948 31.3579 29.2407C32.1577 28.7866 32.8372 28.6337 33.3965 28.7821ZM33.3753 31.3257C33.602 30.4878 33.5485 30.0246 33.2147 29.9361C32.8629 29.8427 32.3842 29.9861 31.7785 30.3662C31.1753 30.7372 30.626 31.195 30.1306 31.7395C29.6351 32.284 29.3374 32.7409 29.2375 33.1103C29.196 33.2634 29.225 33.4063 29.3245 33.5389C29.4264 33.6625 29.5631 33.7471 29.7345 33.7925C30.1585 33.905 30.7134 33.7481 31.3993 33.3217C32.0876 32.8863 32.6464 32.2862 33.0758 31.5214C33.1394 31.3935 33.238 31.3327 33.3716 31.3392L33.3753 31.3257ZM36.2886 34.2133C37.552 32.9745 38.5507 32.0711 39.2846 31.5029C40.03 30.9282 40.574 30.6863 40.9168 30.7772C41.2687 30.8706 41.548 31.1426 41.7547 31.5934C41.9705 32.0465 42.0223 32.4803 41.9102 32.8947C41.7346 33.5434 41.3712 34.2967 40.8199 35.1547C39.8105 36.7409 39.0893 37.4765 38.6563 37.3616C38.4578 37.309 38.3952 37.1475 38.4683 36.8773C38.5195 36.6881 38.7179 36.3303 39.0634 35.804C39.4203 35.271 39.7556 34.7468 40.0691 34.2313C40.3941 33.7092 40.5944 33.3085 40.67 33.0292C40.748 32.7409 40.7602 32.5172 40.7066 32.3582C40.6619 32.2015 40.5945 32.1112 40.5043 32.0872C40.4231 32.0657 40.3301 32.07 40.2253 32.1001C40.1204 32.1302 39.9923 32.1928 39.8409 32.2878C39.6985 32.3852 39.5606 32.4838 39.4272 32.5836C39.2963 32.6744 39.1237 32.8121 38.9094 32.9966C38.7041 33.1836 38.5299 33.345 38.3868 33.4808C38.2461 33.6076 38.0408 33.7946 37.7709 34.0416C37.501 34.2887 37.2957 34.4756 37.155 34.6024C37.0143 34.7293 36.8274 34.9018 36.5943 35.12C36.3612 35.3382 36.1756 35.5062 36.0373 35.624C35.9081 35.7442 35.7617 35.8743 35.5981 36.0144C35.2823 36.2879 35.0568 36.4067 34.9215 36.3708C34.7952 36.3373 34.6732 36.1987 34.5554 35.955C34.4401 35.7024 34.4031 35.4994 34.4446 35.3463C34.4568 35.3012 34.5213 35.188 34.6381 35.0065C34.9509 34.5295 35.3147 33.9356 35.7294 33.2248C36.1466 32.5051 36.497 31.6566 36.7808 30.6794C36.9859 30.0289 37.1696 29.7252 37.332 29.7683C37.5305 29.8209 37.7009 29.9772 37.8433 30.237C37.9857 30.4969 38.0227 30.753 37.9545 31.0052C37.8886 31.2485 37.6827 31.7056 37.3368 32.3767C37.0022 33.0411 36.6528 33.6533 36.2886 34.2133Z" fill="url(#paint0_linear_5_5243)"/>
<defs>
<linearGradient id="paint0_linear_5_5243" x1="-4.67072" y1="12.6474" x2="70.1524" y2="32.8967" gradientUnits="userSpaceOnUse">
<stop stop-color="#2253FF"/>
<stop offset="1" stop-color="#43D2FF"/>
</linearGradient>
</defs>
</svg>
