<svg width="25" height="24" viewBox="0 0 25 24" fill="none" xmlns="http://www.w3.org/2000/svg">
<g clip-path="url(#clip0_5_5164)">
<path d="M12.0994 22.5563C18.2194 22.5563 23.1806 17.5951 23.1806 11.475C23.1806 5.35504 18.2194 0.393799 12.0994 0.393799C5.97936 0.393799 1.01812 5.35504 1.01812 11.475C1.01812 17.5951 5.97936 22.5563 12.0994 22.5563Z" fill="url(#paint0_linear_5_5164)"/>
<path d="M12.0994 22.5563C18.2194 22.5563 23.1806 17.5951 23.1806 11.475C23.1806 5.35504 18.2194 0.393799 12.0994 0.393799C5.97936 0.393799 1.01812 5.35504 1.01812 11.475C1.01812 17.5951 5.97936 22.5563 12.0994 22.5563Z" fill="url(#paint1_radial_5_5164)"/>
<path d="M23.065 9.86235C21.1431 7.92173 18.6869 5.50298 18.5837 5.49829C18.5697 5.31548 18.4197 5.17485 18.2369 5.17485C18.0447 5.17485 17.89 5.32954 17.89 5.52173C17.89 5.61548 17.9275 5.69985 17.9884 5.76548L16.1041 7.56079C16.0712 7.54673 12.6259 4.00767 12.4525 3.9936C12.4384 3.81079 12.2884 3.67017 12.1056 3.67017C11.9134 3.67017 11.7587 3.82485 11.7587 4.01704C11.7587 4.1436 11.8244 4.2561 11.9275 4.31704L9.40562 8.47017C9.35406 8.42798 6.49468 5.51704 6.32124 5.50298C6.30718 5.32017 6.15718 5.17954 5.97437 5.17954C5.78218 5.17954 5.62749 5.33423 5.62749 5.52642C5.62749 5.70923 5.76812 5.85923 5.95093 5.87329C5.95562 5.96235 7.04312 12.9233 7.04312 12.9233H6.80875C6.53218 12.9233 6.30718 13.1483 6.30718 13.4249V14.5311C6.30718 14.7561 6.45249 14.9436 6.65406 15.0092C6.68218 15.0936 10.5728 19.0124 13.9619 22.392C19.2025 21.5108 23.1962 16.9545 23.1962 11.4655C23.1775 10.9264 23.14 10.3874 23.065 9.86235Z" fill="url(#paint2_linear_5_5164)"/>
<path d="M14.9238 8.67646L12.0973 4.01709L9.27069 8.67646L5.96132 5.52646L7.02538 12.928H17.1691L18.2332 5.52646L14.9238 8.67646Z" fill="url(#paint3_linear_5_5164)"/>
<path d="M12.0984 11.0067C12.5851 11.0067 12.9797 10.3687 12.9797 9.58174C12.9797 8.79473 12.5851 8.15674 12.0984 8.15674C11.6117 8.15674 11.2172 8.79473 11.2172 9.58174C11.2172 10.3687 11.6117 11.0067 12.0984 11.0067Z" fill="url(#paint4_linear_5_5164)"/>
<path d="M17.4 15.0425H6.79687C6.5203 15.0425 6.2953 14.8175 6.2953 14.5409V13.4347C6.2953 13.1581 6.5203 12.9331 6.79687 12.9331H17.4047C17.6812 12.9331 17.9062 13.1581 17.9062 13.4347V14.5409C17.9062 14.8175 17.6812 15.0425 17.4 15.0425Z" fill="url(#paint5_linear_5_5164)"/>
<path d="M5.96249 5.87783C6.15406 5.87783 6.30937 5.72253 6.30937 5.53096C6.30937 5.33938 6.15406 5.18408 5.96249 5.18408C5.77092 5.18408 5.61562 5.33938 5.61562 5.53096C5.61562 5.72253 5.77092 5.87783 5.96249 5.87783Z" fill="url(#paint6_linear_5_5164)"/>
<path d="M12.0975 4.36416C12.2891 4.36416 12.4444 4.20886 12.4444 4.01729C12.4444 3.82571 12.2891 3.67041 12.0975 3.67041C11.9059 3.67041 11.7506 3.82571 11.7506 4.01729C11.7506 4.20886 11.9059 4.36416 12.0975 4.36416Z" fill="url(#paint7_linear_5_5164)"/>
<path d="M18.232 5.86904C18.4236 5.86904 18.5789 5.71374 18.5789 5.52217C18.5789 5.33059 18.4236 5.17529 18.232 5.17529C18.0404 5.17529 17.8851 5.33059 17.8851 5.52217C17.8851 5.71374 18.0404 5.86904 18.232 5.86904Z" fill="url(#paint8_linear_5_5164)"/>
<path d="M23.9113 23.6059H0.286337C0.136337 23.6059 0.0425872 23.4325 0.13165 23.3106L2.03009 20.5872C2.07696 20.5215 2.07696 20.4372 2.03009 20.3715L0.13165 17.6481C0.0425872 17.5215 0.13165 17.3528 0.286337 17.3528H23.9113C24.0613 17.3528 24.1551 17.5262 24.066 17.6481L22.1676 20.3715C22.1207 20.4372 22.1207 20.5215 22.1676 20.5872L24.066 23.3106C24.1504 23.4372 24.0613 23.6059 23.9113 23.6059Z" fill="url(#paint9_linear_5_5164)"/>
<path d="M22.1669 20.3715L24.0653 17.6481C24.1544 17.5215 24.0653 17.3528 23.9106 17.3528H22.3591C22.5091 17.3528 22.5981 17.5262 22.5137 17.6481L20.6153 20.3715C20.5919 20.4043 20.5825 20.4418 20.5825 20.4793H22.1294C22.1294 20.4418 22.1434 20.4043 22.1669 20.3715Z" fill="url(#paint10_linear_5_5164)"/>
<path d="M22.1669 20.5875C22.1435 20.5547 22.1341 20.5172 22.1341 20.4797H20.5826C20.5826 20.5172 20.5919 20.5547 20.6154 20.5875L22.5138 23.311C22.5982 23.4375 22.5091 23.6063 22.3591 23.6063H23.9107C24.0607 23.6063 24.1498 23.4329 24.0654 23.311L22.1669 20.5875Z" fill="url(#paint11_linear_5_5164)"/>
<path d="M23.2738 22.1763H0.923837L0.13165 23.3106C0.0425872 23.4372 0.13165 23.606 0.286337 23.606H23.9113C24.0613 23.606 24.1551 23.4325 24.066 23.3106L23.2738 22.1763Z" fill="url(#paint12_linear_5_5164)"/>
<path d="M0.599646 18.3137H23.6012L24.0653 17.6481C24.1543 17.5215 24.0653 17.3528 23.9106 17.3528H0.285584C0.135584 17.3528 0.0418339 17.5262 0.130896 17.6481L0.599646 18.3137Z" fill="url(#paint13_linear_5_5164)"/>
<path d="M2.03009 20.3715L0.13165 17.6481C0.0425872 17.5215 0.13165 17.3528 0.286337 17.3528H1.8379C1.6879 17.3528 1.59884 17.5262 1.68321 17.6481L3.58165 20.3715C3.60509 20.4043 3.61446 20.4418 3.61446 20.4793H2.06759C2.06759 20.4418 2.05352 20.4043 2.03009 20.3715Z" fill="url(#paint14_linear_5_5164)"/>
<path d="M2.03122 20.5875C2.05466 20.5547 2.06403 20.5172 2.06403 20.4797H3.6156C3.6156 20.5172 3.60622 20.5547 3.58278 20.5875L1.68435 23.311C1.59997 23.4375 1.68903 23.6063 1.83903 23.6063H0.287472C0.137472 23.6063 0.0484095 23.4329 0.132784 23.311L2.03122 20.5875Z" fill="url(#paint15_linear_5_5164)"/>
<path d="M24.0638 23.3106L22.1654 20.5872C22.1185 20.5215 22.1185 20.4372 22.1654 20.3715L22.2732 20.2215C21.8982 19.8418 21.3779 19.3262 21.3216 19.3075C21.2701 19.1809 21.1435 19.0918 20.9982 19.0918H19.8076C19.6154 19.0918 19.456 19.2512 19.456 19.4434V19.57C19.4279 19.5418 19.2451 19.345 19.156 19.3075C19.1185 19.2231 19.0529 19.1481 18.9591 19.1153C18.7763 19.045 18.5748 19.134 18.5044 19.3168L18.2513 19.9731C18.2138 19.9309 17.6326 19.345 17.5529 19.3075C17.4826 19.134 17.281 19.045 17.1029 19.1153C16.9201 19.1856 16.831 19.3872 16.9013 19.57L16.9201 19.6215C16.8826 19.57 16.6623 19.345 16.5779 19.3122C16.5263 19.1856 16.3998 19.0965 16.2544 19.0965C16.0623 19.0965 15.9029 19.2559 15.9029 19.4481V19.8465C15.8654 19.7762 15.4341 19.345 15.3498 19.3122C15.2982 19.1856 15.1716 19.0965 15.0263 19.0965H14.3373C13.9669 19.0965 13.6529 19.3262 13.5263 19.6543C13.4888 19.5887 13.2544 19.3497 13.1654 19.3168C13.1138 19.1903 12.9873 19.1012 12.8419 19.1012C12.6498 19.1012 12.4904 19.2606 12.4904 19.4528V19.8418C12.4529 19.7762 12.031 19.3543 11.9466 19.3168C11.8951 19.1903 11.7685 19.1012 11.6232 19.1012C11.431 19.1012 11.2716 19.2606 11.2716 19.4528V20.5543C11.2341 20.5028 10.0716 19.3356 9.98726 19.3028C9.9357 19.1762 9.80914 19.0872 9.66382 19.0872C9.47164 19.0872 9.31226 19.2465 9.31226 19.4387V19.87C9.29351 19.8559 8.95601 19.5043 8.88101 19.4528C8.72632 19.2418 8.48257 19.1012 8.20132 19.1012C7.84039 19.1012 7.5357 19.3309 7.41382 19.645C7.3857 19.6028 7.08101 19.3262 7.06226 19.3168C7.03414 19.2559 6.99195 19.1997 6.93101 19.1575C6.76695 19.0497 6.55132 19.0965 6.44351 19.2606L6.13882 19.7293C6.12476 19.72 5.67007 19.2606 5.67007 19.2606C5.56226 19.0965 5.34664 19.0543 5.18257 19.1575C5.01851 19.2653 4.97632 19.4809 5.07945 19.645L5.11695 19.7059C5.11226 19.7059 5.10757 19.7012 5.10289 19.7012C5.06539 19.6168 4.80757 19.359 4.7232 19.3215C4.67164 19.195 4.54507 19.1059 4.39976 19.1059H3.19976C3.00757 19.1059 2.8482 19.2653 2.8482 19.4575V21.5387C2.8482 21.684 2.93726 21.8106 3.06382 21.8622C3.08257 21.9137 4.00132 22.8418 4.78882 23.6247H23.9091C24.0591 23.6059 24.1482 23.4372 24.0638 23.3106Z" fill="url(#paint16_linear_5_5164)"/>
<path d="M4.39039 19.7903C4.58257 19.7903 4.74195 19.6309 4.74195 19.4387C4.74195 19.2465 4.58257 19.0872 4.39039 19.0872H3.19976C3.00757 19.0872 2.8482 19.2465 2.8482 19.4387V21.52C2.8482 21.7122 3.00757 21.8715 3.19976 21.8715H4.39039C4.58257 21.8715 4.74195 21.7122 4.74195 21.52C4.74195 21.3278 4.58257 21.1684 4.39039 21.1684H3.55132V20.8309H3.95445C4.14664 20.8309 4.30601 20.6715 4.30601 20.4793C4.30601 20.2872 4.14664 20.1278 3.95445 20.1278H3.55132V19.7903H4.39039Z" fill="url(#paint17_linear_5_5164)"/>
<path d="M20.9919 21.1684H20.1529V20.8309H20.556C20.7482 20.8309 20.9076 20.6715 20.9076 20.4793C20.9076 20.2872 20.7482 20.1278 20.556 20.1278H20.1529V19.7903H20.9919C21.1841 19.7903 21.3435 19.6309 21.3435 19.4387C21.3435 19.2465 21.1841 19.0872 20.9919 19.0872H19.8013C19.6091 19.0872 19.4498 19.2465 19.4498 19.4387V21.52C19.4498 21.7122 19.6091 21.8715 19.8013 21.8715H20.9919C21.1841 21.8715 21.3435 21.7122 21.3435 21.52C21.3435 21.3278 21.1888 21.1684 20.9919 21.1684Z" fill="url(#paint18_linear_5_5164)"/>
<path d="M8.19117 19.7903C8.26617 19.7903 8.3271 19.8512 8.3271 19.9262C8.3271 20.1184 8.48648 20.2778 8.67867 20.2778C8.87085 20.2778 9.03023 20.1184 9.03023 19.9262C9.03023 19.4622 8.65523 19.0872 8.19117 19.0872C7.7271 19.0872 7.3521 19.4622 7.3521 19.9262V21.0325C7.3521 21.4965 7.7271 21.8715 8.19117 21.8715C8.65523 21.8715 9.03023 21.4965 9.03023 21.0325C9.03023 20.8403 8.87085 20.6809 8.67867 20.6809C8.48648 20.6809 8.3271 20.8403 8.3271 21.0325C8.3271 21.1075 8.26617 21.1684 8.19117 21.1684C8.11617 21.1684 8.05523 21.1075 8.05523 21.0325V19.9262C8.05523 19.8512 8.11617 19.7903 8.19117 19.7903Z" fill="url(#paint19_linear_5_5164)"/>
<path d="M12.8365 19.0872C12.6443 19.0872 12.4849 19.2465 12.4849 19.4387V20.9106C12.4849 21.0559 12.3677 21.1684 12.2271 21.1684C12.0865 21.1684 11.9693 21.0512 11.9693 20.9106V19.4387C11.9693 19.2465 11.8099 19.0872 11.6177 19.0872C11.4255 19.0872 11.2662 19.2465 11.2662 19.4387V20.9106C11.2662 21.4403 11.6974 21.8715 12.2271 21.8715C12.7568 21.8715 13.188 21.4403 13.188 20.9106V19.4387C13.188 19.2465 13.0287 19.0872 12.8365 19.0872Z" fill="url(#paint20_linear_5_5164)"/>
<path d="M10.6373 21.1829H10.0044V19.425C10.0044 19.2329 9.84507 19.0735 9.65289 19.0735C9.4607 19.0735 9.30132 19.2329 9.30132 19.425V21.5344C9.30132 21.7266 9.4607 21.886 9.65289 21.886H10.6373C10.8294 21.886 10.9888 21.7266 10.9888 21.5344C10.9888 21.3422 10.8341 21.1829 10.6373 21.1829Z" fill="url(#paint21_linear_5_5164)"/>
<path d="M14.7513 20.1278H14.3294C14.2357 20.1278 14.1607 20.0528 14.1607 19.959C14.1607 19.8653 14.2357 19.7903 14.3294 19.7903H15.0138C15.206 19.7903 15.3654 19.6309 15.3654 19.4387C15.3654 19.2465 15.206 19.0872 15.0138 19.0872H14.3294C13.8466 19.0872 13.4576 19.4762 13.4576 19.959C13.4576 20.4418 13.8466 20.8309 14.3294 20.8309H14.7513C14.8451 20.8309 14.9201 20.9059 14.9201 20.9997C14.9201 21.0934 14.8451 21.1684 14.7513 21.1684H13.9123C13.7201 21.1684 13.5607 21.3278 13.5607 21.52C13.5607 21.7122 13.7201 21.8715 13.9123 21.8715H14.7513C15.2341 21.8715 15.6232 21.4825 15.6232 20.9997C15.6232 20.5168 15.2341 20.1278 14.7513 20.1278Z" fill="url(#paint22_linear_5_5164)"/>
<path d="M16.2466 19.0872C16.0544 19.0872 15.8951 19.2465 15.8951 19.4387V21.52C15.8951 21.7122 16.0544 21.8715 16.2466 21.8715C16.4388 21.8715 16.5982 21.7122 16.5982 21.52V19.4387C16.5982 19.2465 16.4435 19.0872 16.2466 19.0872Z" fill="url(#paint23_linear_5_5164)"/>
<path d="M18.9554 19.1112C18.7726 19.0409 18.571 19.1299 18.5007 19.3127L18.0273 20.5456L17.5539 19.3127C17.4835 19.1299 17.282 19.0409 17.0992 19.1112C16.9164 19.1815 16.8273 19.3831 16.8976 19.5659L17.6992 21.6471C17.7507 21.7831 17.882 21.8721 18.0273 21.8721C18.1726 21.8721 18.3039 21.7831 18.3554 21.6471L19.157 19.5659C19.2273 19.3831 19.1382 19.1815 18.9554 19.1112Z" fill="url(#paint24_linear_5_5164)"/>
<path d="M6.92266 19.1442C6.7586 19.0364 6.54297 19.0833 6.43516 19.2474L6.0461 19.838L5.65703 19.2474C5.54922 19.0833 5.3336 19.0411 5.16953 19.1442C5.00547 19.2474 4.96328 19.4677 5.06641 19.6317L5.61953 20.4802L5.06641 21.3286C4.9586 21.4927 5.00547 21.7083 5.16953 21.8161C5.23047 21.8536 5.2961 21.8724 5.36172 21.8724C5.47422 21.8724 5.58672 21.8161 5.65703 21.713L6.0461 21.1224L6.43516 21.713C6.50078 21.8161 6.61328 21.8724 6.73047 21.8724C6.7961 21.8724 6.86172 21.8536 6.92266 21.8161C7.08672 21.7083 7.12891 21.4927 7.02578 21.3286L6.47266 20.4802L7.02578 19.6317C7.12891 19.4677 7.08203 19.252 6.92266 19.1442Z" fill="url(#paint25_linear_5_5164)"/>
</g>
<defs>
<linearGradient id="paint0_linear_5_5164" x1="4.35539" y1="3.72886" x2="20.2525" y2="19.626" gradientUnits="userSpaceOnUse">
<stop stop-color="#4D526E"/>
<stop offset="0.2727" stop-color="#434862"/>
<stop offset="0.7668" stop-color="#292D42"/>
<stop offset="1" stop-color="#1B1E30"/>
</linearGradient>
<radialGradient id="paint1_radial_5_5164" cx="0" cy="0" r="1" gradientUnits="userSpaceOnUse" gradientTransform="translate(12.6959 12.0267) scale(11.9888)">
<stop offset="0.8186" stop-color="#62698C" stop-opacity="0"/>
<stop offset="1" stop-color="#62698C"/>
</radialGradient>
<linearGradient id="paint2_linear_5_5164" x1="9.16599" y1="6.78965" x2="21.2065" y2="18.8302" gradientUnits="userSpaceOnUse">
<stop stop-color="#1B1E30"/>
<stop offset="0.7836" stop-color="#1B1E30" stop-opacity="0"/>
</linearGradient>
<linearGradient id="paint3_linear_5_5164" x1="8.17171" y1="4.77061" x2="18.2063" y2="14.8052" gradientUnits="userSpaceOnUse">
<stop stop-color="#FFED81"/>
<stop offset="1" stop-color="#FF8804"/>
</linearGradient>
<linearGradient id="paint4_linear_5_5164" x1="12.0984" y1="8.17019" x2="12.0984" y2="11.2451" gradientUnits="userSpaceOnUse">
<stop stop-color="#FF5C5C"/>
<stop offset="0.6572" stop-color="#DD1C38"/>
<stop offset="1" stop-color="#CE0028"/>
</linearGradient>
<linearGradient id="paint5_linear_5_5164" x1="12.0984" y1="12.8669" x2="12.0984" y2="15.094" gradientUnits="userSpaceOnUse">
<stop stop-color="#FF5C5C"/>
<stop offset="0.6572" stop-color="#DD1C38"/>
<stop offset="1" stop-color="#CE0028"/>
</linearGradient>
<linearGradient id="paint6_linear_5_5164" x1="5.96394" y1="5.1838" x2="5.96394" y2="5.93727" gradientUnits="userSpaceOnUse">
<stop stop-color="#FFED81"/>
<stop offset="1" stop-color="#FF8804"/>
</linearGradient>
<linearGradient id="paint7_linear_5_5164" x1="12.0975" y1="3.67332" x2="12.0975" y2="4.42683" gradientUnits="userSpaceOnUse">
<stop stop-color="#FFED81"/>
<stop offset="1" stop-color="#FF8804"/>
</linearGradient>
<linearGradient id="paint8_linear_5_5164" x1="18.2306" y1="5.17811" x2="18.2306" y2="5.93157" gradientUnits="userSpaceOnUse">
<stop stop-color="#FFED81"/>
<stop offset="1" stop-color="#FF8804"/>
</linearGradient>
<linearGradient id="paint9_linear_5_5164" x1="-0.192256" y1="15.2723" x2="25.1466" y2="26.007" gradientUnits="userSpaceOnUse">
<stop stop-color="#FFED81"/>
<stop offset="1" stop-color="#FF8804"/>
</linearGradient>
<linearGradient id="paint10_linear_5_5164" x1="21.7775" y1="18.4788" x2="23.0201" y2="19.5579" gradientUnits="userSpaceOnUse">
<stop offset="0.333" stop-color="#F78100" stop-opacity="0"/>
<stop offset="0.8778" stop-color="#F78100"/>
</linearGradient>
<linearGradient id="paint11_linear_5_5164" x1="21.7381" y1="22.4116" x2="22.8499" y2="21.6486" gradientUnits="userSpaceOnUse">
<stop offset="0.333" stop-color="#F78100" stop-opacity="0"/>
<stop offset="0.8778" stop-color="#F78100"/>
</linearGradient>
<linearGradient id="paint12_linear_5_5164" x1="12.0988" y1="21.4756" x2="12.0988" y2="23.8738" gradientUnits="userSpaceOnUse">
<stop offset="0.333" stop-color="#F78100" stop-opacity="0"/>
<stop offset="0.8778" stop-color="#F78100"/>
</linearGradient>
<linearGradient id="paint13_linear_5_5164" x1="12.0981" y1="17.2572" x2="12.0981" y2="18.6141" gradientUnits="userSpaceOnUse">
<stop stop-color="#FFEDA8"/>
<stop offset="0.7499" stop-color="#FFEDA8" stop-opacity="0"/>
</linearGradient>
<linearGradient id="paint14_linear_5_5164" x1="1.19262" y1="19.3182" x2="2.90398" y2="18.3808" gradientUnits="userSpaceOnUse">
<stop stop-color="#FFEDA8"/>
<stop offset="0.7499" stop-color="#FFEDA8" stop-opacity="0"/>
</linearGradient>
<linearGradient id="paint15_linear_5_5164" x1="1.07155" y1="21.5273" x2="2.85918" y2="22.6064" gradientUnits="userSpaceOnUse">
<stop stop-color="#FFEDA8"/>
<stop offset="0.7499" stop-color="#FFEDA8" stop-opacity="0"/>
</linearGradient>
<linearGradient id="paint16_linear_5_5164" x1="13.4719" y1="19.0283" x2="13.4719" y2="24.5524" gradientUnits="userSpaceOnUse">
<stop offset="0.1224" stop-color="#F78100"/>
<stop offset="0.7665" stop-color="#F78100" stop-opacity="0"/>
</linearGradient>
<linearGradient id="paint17_linear_5_5164" x1="3.79451" y1="19.172" x2="3.79451" y2="22.2612" gradientUnits="userSpaceOnUse">
<stop stop-color="#4D526E"/>
<stop offset="1" stop-color="#1B1E30"/>
</linearGradient>
<linearGradient id="paint18_linear_5_5164" x1="20.3972" y1="19.172" x2="20.3972" y2="22.2612" gradientUnits="userSpaceOnUse">
<stop stop-color="#4D526E"/>
<stop offset="1" stop-color="#1B1E30"/>
</linearGradient>
<linearGradient id="paint19_linear_5_5164" x1="8.18999" y1="19.172" x2="8.18999" y2="22.2612" gradientUnits="userSpaceOnUse">
<stop stop-color="#4D526E"/>
<stop offset="1" stop-color="#1B1E30"/>
</linearGradient>
<linearGradient id="paint20_linear_5_5164" x1="12.2247" y1="19.172" x2="12.2247" y2="22.2612" gradientUnits="userSpaceOnUse">
<stop stop-color="#4D526E"/>
<stop offset="1" stop-color="#1B1E30"/>
</linearGradient>
<linearGradient id="paint21_linear_5_5164" x1="10.1451" y1="19.1723" x2="10.1451" y2="22.2616" gradientUnits="userSpaceOnUse">
<stop stop-color="#4D526E"/>
<stop offset="1" stop-color="#1B1E30"/>
</linearGradient>
<linearGradient id="paint22_linear_5_5164" x1="14.5436" y1="19.172" x2="14.5436" y2="22.2612" gradientUnits="userSpaceOnUse">
<stop stop-color="#4D526E"/>
<stop offset="1" stop-color="#1B1E30"/>
</linearGradient>
<linearGradient id="paint23_linear_5_5164" x1="16.2489" y1="19.172" x2="16.2489" y2="22.2612" gradientUnits="userSpaceOnUse">
<stop stop-color="#4D526E"/>
<stop offset="1" stop-color="#1B1E30"/>
</linearGradient>
<linearGradient id="paint24_linear_5_5164" x1="18.0262" y1="19.1725" x2="18.0262" y2="22.2618" gradientUnits="userSpaceOnUse">
<stop stop-color="#4D526E"/>
<stop offset="1" stop-color="#1B1E30"/>
</linearGradient>
<linearGradient id="paint25_linear_5_5164" x1="6.04745" y1="19.1728" x2="6.04745" y2="22.262" gradientUnits="userSpaceOnUse">
<stop stop-color="#4D526E"/>
<stop offset="1" stop-color="#1B1E30"/>
</linearGradient>
<clipPath id="clip0_5_5164">
<rect width="24" height="24" fill="white" transform="translate(0.0999985)"/>
</clipPath>
</defs>
</svg>
