<svg width="145" height="61" viewBox="0 0 145 61" fill="none" xmlns="http://www.w3.org/2000/svg">
<path d="M79.0428 34.9476L78.6552 35.262L79.0428 34.9476ZM66.4774 27.5152L65.9997 27.3639L66.4774 27.5152ZM144.576 7.30412C144.825 7.18484 144.929 6.88656 144.808 6.63789L142.842 2.58555C142.721 2.33688 142.422 2.23198 142.173 2.35126C141.924 2.47054 141.82 2.76882 141.941 3.01749L143.689 6.61957L140.085 8.34736C139.836 8.46664 139.733 8.76492 139.853 9.01359C139.974 9.26226 140.273 9.36716 140.522 9.24788L144.576 7.30412ZM0.31775 19.3018C1.02477 19.0756 1.77025 18.8508 2.55136 18.6297L2.27415 17.6688C1.48269 17.8929 0.726405 18.1208 0.00818579 18.3507L0.31775 19.3018ZM7.10648 17.4809C8.56928 17.1537 10.112 16.8459 11.7224 16.5665L11.5467 15.5825C9.92047 15.8646 8.36193 16.1755 6.88336 16.5063L7.10648 17.4809ZM16.3747 15.8684C17.8938 15.6755 19.4563 15.511 21.0538 15.3808L20.968 14.3854C19.3551 14.5168 17.7777 14.6829 16.2441 14.8776L16.3747 15.8684ZM25.7519 15.1061C27.2999 15.0515 28.8714 15.032 30.4593 15.0524L30.4679 14.0537C28.8632 14.0331 27.2757 14.0529 25.7122 14.108L25.7519 15.1061ZM35.1633 15.2316C36.7172 15.3311 38.2802 15.4719 39.8462 15.6586L39.9607 14.6669C38.3758 14.478 36.7945 14.3355 35.2231 14.2349L35.1633 15.2316ZM44.4981 16.3515C46.0362 16.628 47.5711 16.9528 49.0973 17.33L49.3341 16.3606C47.786 15.978 46.2299 15.6487 44.6716 15.3686L44.4981 16.3515ZM53.6162 18.6139C55.1029 19.094 56.5753 19.6292 58.0279 20.2236L58.4044 19.2998C56.9272 18.6953 55.4308 18.1514 53.9208 17.6638L53.6162 18.6139ZM62.2968 22.1758C63.6843 22.8813 65.0473 23.648 66.3805 24.4798L66.9088 23.6337C65.5498 22.7858 64.1612 22.0047 62.7485 21.2864L62.2968 22.1758ZM70.2417 27.1406C71.4737 28.0763 72.673 29.077 73.8346 30.146L74.5118 29.4133C73.3264 28.3224 72.1028 27.3015 70.8461 26.3469L70.2417 27.1406ZM77.1268 33.4781C77.6461 34.0561 78.1558 34.6506 78.6552 35.262L79.4303 34.6332C78.9209 34.0095 78.401 33.403 77.8711 32.8133L77.1268 33.4781ZM78.6552 35.262C79.2205 35.9542 79.7497 36.6325 80.2441 37.2967L81.0471 36.7036C80.5433 36.0267 80.0048 35.3365 79.4303 34.6332L78.6552 35.262ZM83.0306 41.4957C83.9623 43.1058 84.6671 44.6108 85.1744 46.0077L86.1156 45.6711C85.5857 44.2119 84.8545 42.6535 83.8972 40.9992L83.0306 41.4957ZM86.2144 50.8589C86.2947 52.7326 85.9242 54.2867 85.2489 55.5225L86.1284 56.0035C86.9014 54.5892 87.3018 52.8514 87.2148 50.8206L86.2144 50.8589ZM81.7568 58.6173C80.3462 59.1982 78.7025 59.3857 76.9964 59.1458L76.8608 60.1347C78.7241 60.3968 80.5499 60.1965 82.1423 59.5407L81.7568 58.6173ZM72.4156 57.4609C71.1005 56.6516 69.85 55.5607 68.7536 54.1758L67.9688 54.7927C69.1371 56.2684 70.4757 57.4384 71.8926 58.3103L72.4156 57.4609ZM66.2975 49.8771C65.7276 48.447 65.2876 46.8437 65.0167 45.0615L64.0267 45.2071C64.3085 47.0603 64.7676 48.7378 65.3673 50.2426L66.2975 49.8771ZM64.7178 40.0707C64.7543 38.4958 64.9058 36.8172 65.1889 35.0327L64.1999 34.8724C63.9103 36.698 63.7545 38.4211 63.7168 40.0432L64.7178 40.0707ZM66.2379 30.1336C66.4522 29.3291 66.6909 28.5068 66.9552 27.6665L65.9997 27.3639C65.7312 28.2177 65.4884 29.0541 65.2702 29.8731L66.2379 30.1336ZM66.9552 27.6665C67.2077 26.8633 67.4792 26.0828 67.7687 25.3246L66.8328 24.9656C66.5361 25.7428 66.2581 26.542 65.9997 27.3639L66.9552 27.6665ZM69.8157 20.8521C70.6163 19.374 71.4977 17.9981 72.4516 16.7188L71.6473 16.1205C70.6645 17.4385 69.7574 18.8547 68.9343 20.3745L69.8157 20.8521ZM75.6776 13.0109C76.8537 11.8492 78.1041 10.7906 79.419 9.82829L78.8245 9.02212C77.4714 10.0124 76.1835 11.1026 74.9716 12.2998L75.6776 13.0109ZM83.5819 7.20504C85.0226 6.42704 86.5186 5.73905 88.0602 5.13444L87.6903 4.20474C86.1135 4.82317 84.5806 5.52792 83.1023 6.32627L83.5819 7.20504ZM92.7542 3.5798C94.3344 3.14491 95.9483 2.78304 97.5863 2.48798L97.4043 1.5051C95.7387 1.80512 94.0953 2.1735 92.484 2.61693L92.7542 3.5798ZM102.504 1.8031C104.146 1.63744 105.803 1.53009 107.465 1.4751L107.428 0.476897C105.745 0.532576 104.065 0.641342 102.399 0.809406L102.504 1.8031ZM112.442 1.46097C114.108 1.5046 115.77 1.59485 117.418 1.72567L117.493 0.730064C115.828 0.597912 114.149 0.506681 112.464 0.462555L112.442 1.46097ZM122.376 2.24169C124.046 2.4559 125.692 2.70707 127.304 2.98844L127.472 2.00466C125.846 1.72078 124.185 1.46732 122.5 1.2511L122.376 2.24169ZM132.202 3.95504C133.877 4.32379 135.498 4.7203 137.052 5.13565L137.307 4.171C135.739 3.75184 134.104 3.3518 132.414 2.9798L132.202 3.95504ZM141.837 6.53628C142.651 6.79667 143.438 7.06015 144.194 7.32496L144.522 6.38276C143.757 6.11483 142.961 5.84842 142.139 5.58531L141.837 6.53628Z" fill="url(#paint0_linear_5_5244)"/>
<defs>
<linearGradient id="paint0_linear_5_5244" x1="7.98217" y1="47.719" x2="145.356" y2="10.5418" gradientUnits="userSpaceOnUse">
<stop stop-color="#2253FF"/>
<stop offset="1" stop-color="#43D2FF"/>
</linearGradient>
</defs>
</svg>
