<svg width="25" height="24" viewBox="0 0 25 24" fill="none" xmlns="http://www.w3.org/2000/svg">
<g clip-path="url(#clip0_5_5107)">
<path d="M14.8342 22.085H10.33V18.6591C10.33 17.8599 10.9779 17.2119 11.7772 17.2119H13.387C14.1863 17.2119 14.8342 17.8598 14.8342 18.6591V22.085Z" fill="url(#paint0_linear_5_5107)"/>
<path d="M14.8342 22.085V18.6591C14.8342 17.8599 14.1863 17.2119 13.387 17.2119H11.7772C10.978 17.2119 10.33 17.8598 10.33 18.6591V19.0195L13.3954 22.0849H14.8342V22.085Z" fill="url(#paint1_linear_5_5107)"/>
<path d="M19.5195 24.0003H5.64144C5.39179 24.0003 5.18939 23.7979 5.18939 23.5482V23.2979C5.18939 22.3011 5.99749 21.493 6.99429 21.493H18.1665C19.1633 21.493 19.9714 22.3011 19.9714 23.2979V23.5482C19.9715 23.7979 19.7691 24.0003 19.5195 24.0003Z" fill="url(#paint2_linear_5_5107)"/>
<path d="M22.5418 19.2834H2.61852C1.6836 19.2834 0.92572 18.5255 0.92572 17.5906V5.30706C0.92572 4.37214 1.6836 3.61426 2.61852 3.61426H22.5418C23.4767 3.61426 24.2346 4.37214 24.2346 5.30706V17.5906C24.2346 18.5255 23.4767 19.2834 22.5418 19.2834Z" fill="url(#paint3_linear_5_5107)"/>
<path d="M3.30703 4.84863H21.8517C22.3946 4.84863 22.8346 5.28868 22.8346 5.8315V17.0668C22.8346 17.6097 22.3946 18.0498 21.8517 18.0498H3.30703C2.7642 18.0498 2.32416 17.6097 2.32416 17.0668V5.8315C2.32411 5.28868 2.76416 4.84863 3.30703 4.84863Z" fill="url(#paint4_linear_5_5107)"/>
<path d="M21.358 17.447H3.79578C3.4156 17.447 3.10736 17.1388 3.10736 16.7586V6.1396C3.10736 5.75941 3.41555 5.45117 3.79578 5.45117H21.358C21.7381 5.45117 22.0464 5.75936 22.0464 6.1396V16.7586C22.0464 17.1388 21.7381 17.447 21.358 17.447Z" fill="url(#paint5_linear_5_5107)"/>
<path d="M1.74633 7.91096L13.1188 19.2834H22.5418C23.4767 19.2834 24.2346 18.5255 24.2346 17.5906V5.30706C24.2346 4.37214 23.4767 3.61426 22.5418 3.61426H2.61852C1.6836 3.61426 0.92572 4.37214 0.92572 5.30706V6.17901C0.92572 6.87713 1.24544 7.50047 1.74633 7.91096Z" fill="url(#paint6_linear_5_5107)"/>
<path d="M3.34906 8.4183H3.16417C1.92793 8.4183 0.92572 7.41614 0.92572 6.17985V4.11896L3.26087 3.97778L5.58751 4.11896V6.17985C5.58751 7.41614 4.5853 8.4183 3.34906 8.4183Z" fill="url(#paint7_linear_5_5107)"/>
<path d="M8.01117 8.41806H7.82628C6.59004 8.41806 5.58783 7.41589 5.58783 6.17961V4.11872L7.90717 3.97754L10.2496 4.11872V6.17961C10.2496 7.41589 9.24741 8.41806 8.01117 8.41806Z" fill="url(#paint8_linear_5_5107)"/>
<path d="M12.6716 8.4183H12.4867C11.2504 8.4183 10.2482 7.41614 10.2482 6.17985V4.11896L12.5518 3.97778L14.91 4.11896V6.17985C14.91 7.41614 13.9078 8.4183 12.6716 8.4183Z" fill="url(#paint9_linear_5_5107)"/>
<path d="M17.3373 8.41806H17.1524C15.9162 8.41806 14.914 7.41589 14.914 6.17961V4.11872L17.2017 3.97754L19.5757 4.11872V6.17961C19.5758 7.41589 18.5736 8.41806 17.3373 8.41806Z" fill="url(#paint10_linear_5_5107)"/>
<path d="M21.9975 8.41824H21.8126C20.5764 8.41824 19.5742 7.41608 19.5742 6.17979V4.1189L21.9082 3.93066L24.2359 4.1189V6.17979C24.2359 7.41608 23.2338 8.41824 21.9975 8.41824Z" fill="url(#paint11_linear_5_5107)"/>
<path d="M7.7989 0H5.54158C4.96379 0 4.42765 0.277365 4.12638 0.732047L0.92572 4.11849H5.58751L7.7989 0Z" fill="url(#paint12_linear_5_5107)"/>
<path d="M10.9867 0H7.79922L5.58783 4.11849H10.2496L10.9867 0Z" fill="url(#paint13_linear_5_5107)"/>
<path d="M14.1728 0H10.9854L10.2482 4.11849H14.91L14.1728 0Z" fill="url(#paint14_linear_5_5107)"/>
<path d="M17.3613 0H14.1738L14.9109 4.11849H19.5727L17.3613 0Z" fill="url(#paint15_linear_5_5107)"/>
<path d="M19.6186 0H17.3613L19.5727 4.11849H24.2344L21.0338 0.732047C20.7325 0.277365 20.1964 0 19.6186 0Z" fill="url(#paint16_linear_5_5107)"/>
<path d="M22.9963 15.4591L15.8596 8.32196C15.7053 8.16812 15.4967 8.08191 15.2789 8.08191H10.9547C10.5798 8.08191 10.2753 8.38591 10.2753 8.76083V13.085C10.2753 13.3029 10.362 13.5118 10.5158 13.6657L17.653 20.8024C17.837 20.9863 18.1354 20.9863 18.3194 20.8024L22.9963 16.1255C23.1803 15.9415 23.1803 15.6431 22.9963 15.4591ZM12.3658 10.8439C11.951 10.8439 11.6151 10.5075 11.6151 10.0922C11.6151 9.67697 11.9511 9.34102 12.3658 9.34102C12.7811 9.34102 13.118 9.67702 13.118 10.0922C13.118 10.5075 12.7811 10.8439 12.3658 10.8439Z" fill="url(#paint17_linear_5_5107)"/>
<path d="M22.9955 15.4595L16.2639 8.72735L16.2634 8.72688C16.1091 8.57352 15.901 8.4873 15.6832 8.4873H11.359C10.9841 8.4873 10.6796 8.7913 10.6796 9.16622V13.4904C10.6796 13.7082 10.7663 13.9168 10.9197 14.0706L10.9201 14.0711L17.6523 20.8027C17.8363 20.9867 18.1347 20.9867 18.3187 20.8027L22.9955 16.1259C23.1795 15.9419 23.1795 15.6434 22.9955 15.4595ZM11.6144 10.0926C11.6144 9.67733 11.9504 9.34138 12.3651 9.34138C12.6779 9.34138 12.9462 9.53229 13.0593 9.80387C13.0969 9.89286 13.1172 9.99018 13.1172 10.0926C13.1172 10.5078 12.7803 10.8442 12.3651 10.8442C12.2632 10.8442 12.1658 10.8239 12.0773 10.7873C11.8053 10.6742 11.6144 10.4058 11.6144 10.0926Z" fill="url(#paint18_linear_5_5107)"/>
<path d="M22.9963 16.1255C23.1265 15.9953 23.1645 15.8072 23.1102 15.6436C23.088 15.5759 23.05 15.5124 22.9963 15.4591L15.8596 8.32196C15.7951 8.258 15.7219 8.2061 15.6422 8.16718C15.5306 8.11156 15.4063 8.08191 15.2789 8.08191H10.9547C10.8616 8.08191 10.7726 8.10092 10.6915 8.13476C10.7017 9.23631 11.0381 10.1238 11.5585 10.5561L20.0623 19.0599L22.9963 16.1255ZM12.3658 10.8439C11.951 10.8439 11.6151 10.5075 11.6151 10.0922C11.6151 9.67697 11.951 9.34102 12.3658 9.34102C12.7811 9.34102 13.118 9.67702 13.118 10.0922C13.118 10.5075 12.7811 10.8439 12.3658 10.8439Z" fill="url(#paint19_linear_5_5107)"/>
<path d="M12.3164 10.8439C11.3749 10.8439 10.6916 9.68221 10.6916 8.08164C10.6916 6.48108 11.3749 5.31934 12.3164 5.31934C13.2579 5.31934 13.9413 6.48108 13.9413 8.08164H12.6585C12.6585 7.41294 12.4959 6.94635 12.3642 6.72527C12.3427 6.68922 12.2902 6.68922 12.2688 6.72527C12.137 6.94635 11.9744 7.41294 11.9744 8.08164C11.9744 8.83214 12.1793 9.32804 12.3154 9.508C12.4003 9.39515 12.5505 9.35378 12.6789 9.41223C13.3459 9.71562 13.2247 10.7067 12.5021 10.8283C12.4335 10.8398 12.3708 10.8439 12.3164 10.8439Z" fill="url(#paint20_linear_5_5107)"/>
<path d="M12.926 6.16406C12.5331 6.16406 12.2658 6.72496 12.2658 6.72496C12.2873 6.68891 12.3397 6.68891 12.3612 6.72496C12.4929 6.94604 12.6555 7.41263 12.6555 8.08133H13.8811C13.8811 7.02246 13.4535 6.16406 12.926 6.16406Z" fill="url(#paint21_linear_5_5107)"/>
<path d="M12.6789 9.41187C12.5505 9.35342 12.4003 9.39479 12.3154 9.50768C12.2464 9.41658 12.16 9.24415 12.0913 8.99902H10.7736C10.9814 10.1069 11.5669 10.8436 12.3164 10.8436C12.3708 10.8436 12.4335 10.8395 12.5021 10.828C13.2246 10.7064 13.3458 9.71526 12.6789 9.41187Z" fill="url(#paint22_linear_5_5107)"/>
<path d="M15.7476 18.8979L14.0389 17.1897L12.6073 15.7581V12.3149C12.585 12.1627 12.6105 12.0331 12.6887 11.9549C12.7908 11.8529 13.0303 11.7931 13.1444 11.9073C13.2854 12.0483 13.1537 12.3597 13.4323 12.6383C13.5137 12.7197 13.6188 12.7871 13.7216 12.7994L13.723 11.4765C13.7 11.2404 13.7507 11.0018 13.9718 10.7807C14.4212 10.3313 14.9841 10.5528 15.3588 10.9275C15.4994 11.0681 15.8351 11.4506 15.7476 11.6987V18.8979Z" fill="url(#paint23_linear_5_5107)"/>
<path d="M17.1165 20.2693L15.7456 18.8983L14.0369 17.1901V13.9197C14.0109 13.8248 14.0146 13.7319 14.0714 13.6752C14.0804 13.6661 14.0952 13.6574 14.1106 13.6486L15.7455 12.7773L16.4955 12.3777C16.6335 12.306 16.8191 12.3902 16.9569 12.528C17.0879 12.659 17.17 12.8325 17.1165 12.9678L17.1165 20.2693Z" fill="url(#paint24_linear_5_5107)"/>
<path d="M18.3322 20.7868L18.3166 20.8023C18.1325 20.9864 17.834 20.9864 17.6501 20.8026L15.9125 19.0649V15.863C15.8774 15.7837 15.877 15.6997 15.9385 15.6382L17.8444 13.7323C17.9432 13.6335 18.1019 13.7086 18.2187 13.8254C18.3259 13.9326 18.3978 14.0751 18.3322 14.1741V16.1935V20.7868Z" fill="url(#paint25_linear_5_5107)"/>
<path d="M20.7571 18.3634L18.3187 20.8019C18.1346 20.986 17.8361 20.986 17.6522 20.8022L17.3891 20.539V17.337C17.354 17.2578 17.3535 17.1737 17.415 17.1122L19.3181 15.2091C19.4139 15.1134 19.5631 15.1673 19.6651 15.2693L20.732 16.3362C20.795 16.3992 20.7924 16.4819 20.7571 16.5584L20.7571 18.3634Z" fill="url(#paint26_linear_5_5107)"/>
<path d="M13.9208 12.7314C14.2834 12.3688 13.2705 11.4818 13.9717 10.7807C14.4212 10.3312 14.9845 10.5529 15.3591 10.9275C15.518 11.0863 15.9255 11.5537 15.6917 11.7875C15.6109 11.8684 15.3921 11.9792 15.2603 11.8474C15.1524 11.7396 15.2093 11.5688 14.9636 11.3231C14.7509 11.1103 14.577 11.1103 14.4841 11.2032C14.1844 11.5029 15.1913 12.3959 14.4362 13.151C14.0046 13.5825 13.4563 13.5016 13.0218 13.0671C12.6292 12.6745 12.4914 12.1531 12.6892 11.9553C12.791 11.8534 13.0308 11.7935 13.1446 11.9073C13.2855 12.0482 13.1536 12.3598 13.4323 12.6385C13.5702 12.7764 13.777 12.8753 13.9208 12.7314Z" fill="url(#paint27_linear_5_5107)"/>
<path d="M14.0715 13.6754C14.0805 13.6664 14.0955 13.6574 14.1105 13.6484L16.4958 12.3779C16.6336 12.306 16.8194 12.3899 16.9572 12.5277C17.0951 12.6655 17.179 12.8513 17.1071 12.9892L15.8395 15.3774C15.8306 15.3924 15.8216 15.4074 15.8126 15.4164C15.7017 15.5273 15.45 15.4374 15.3211 15.3086C15.2462 15.2336 15.2103 15.1497 15.2552 15.0688L15.5279 14.5924L14.8956 13.9601L14.4191 14.2328C14.3382 14.2777 14.2543 14.2418 14.1794 14.1669C14.0505 14.038 13.9606 13.7862 14.0715 13.6754ZM15.7886 14.1339L16.3729 13.112L15.3511 13.6964L15.7886 14.1339Z" fill="url(#paint28_linear_5_5107)"/>
<path d="M15.9986 15.9859C15.8967 15.884 15.8428 15.7342 15.9387 15.6382L17.8445 13.7324C17.9434 13.6335 18.1022 13.7084 18.2191 13.8253C18.3359 13.9422 18.4109 14.101 18.312 14.1999L16.6699 15.842L17.3531 16.5252C17.4429 16.6151 17.386 16.762 17.2842 16.8638C17.1823 16.9657 17.0355 17.0227 16.9455 16.9328L15.9986 15.9859Z" fill="url(#paint29_linear_5_5107)"/>
<path d="M19.0155 16.4469L19.465 16.8964C19.5548 16.9862 19.5189 17.1241 19.423 17.22C19.3421 17.3009 19.2042 17.3548 19.1053 17.2559L18.6558 16.8064L18.1464 17.3158L18.9495 18.1189C19.0394 18.2088 18.9944 18.3556 18.8836 18.4665C18.7876 18.5624 18.6408 18.6253 18.542 18.5265L17.4752 17.4597C17.3733 17.3578 17.3194 17.208 17.4152 17.1121L19.318 15.2093C19.414 15.1133 19.5638 15.1673 19.6657 15.2692L20.7324 16.336C20.8313 16.4349 20.7684 16.5817 20.6725 16.6776C20.5616 16.7885 20.4148 16.8334 20.3249 16.7435L19.5218 15.9405L19.0155 16.4469Z" fill="url(#paint30_linear_5_5107)"/>
</g>
<defs>
<linearGradient id="paint0_linear_5_5107" x1="11.2978" y1="19.6485" x2="14.8582" y2="19.6485" gradientUnits="userSpaceOnUse">
<stop stop-color="#8A7889"/>
<stop offset="1" stop-color="#6E566E"/>
</linearGradient>
<linearGradient id="paint1_linear_5_5107" x1="14.7269" y1="22.2577" x2="10.6833" y2="15.4385" gradientUnits="userSpaceOnUse">
<stop stop-color="#6E566E" stop-opacity="0"/>
<stop offset="0.2191" stop-color="#685168" stop-opacity="0.219"/>
<stop offset="1" stop-color="#564357"/>
</linearGradient>
<linearGradient id="paint2_linear_5_5107" x1="12.5805" y1="21.3201" x2="12.5805" y2="24.5608" gradientUnits="userSpaceOnUse">
<stop stop-color="#8A7889"/>
<stop offset="1" stop-color="#6E566E"/>
</linearGradient>
<linearGradient id="paint3_linear_5_5107" x1="9.6533" y1="5.20823" x2="18.884" y2="24.8898" gradientUnits="userSpaceOnUse">
<stop stop-color="#8A7889"/>
<stop offset="1" stop-color="#6E566E"/>
</linearGradient>
<linearGradient id="paint4_linear_5_5107" x1="15.1297" y1="16.887" x2="7.08647" y2="-0.262708" gradientUnits="userSpaceOnUse">
<stop stop-color="#8A7889"/>
<stop offset="1" stop-color="#6E566E"/>
</linearGradient>
<linearGradient id="paint5_linear_5_5107" x1="10.2259" y1="6.43635" x2="17.6404" y2="22.2455" gradientUnits="userSpaceOnUse">
<stop stop-color="#F8F6FB"/>
<stop offset="1" stop-color="#EFDCFB"/>
</linearGradient>
<linearGradient id="paint6_linear_5_5107" x1="13.5405" y1="11.8794" x2="9.9061" y2="-11.2622" gradientUnits="userSpaceOnUse">
<stop stop-color="#6E566E" stop-opacity="0"/>
<stop offset="0.2191" stop-color="#685168" stop-opacity="0.219"/>
<stop offset="1" stop-color="#564357"/>
</linearGradient>
<linearGradient id="paint7_linear_5_5107" x1="2.35405" y1="4.71044" x2="5.8005" y2="8.15689" gradientUnits="userSpaceOnUse">
<stop stop-color="#FF7044"/>
<stop offset="1" stop-color="#F82814"/>
</linearGradient>
<linearGradient id="paint8_linear_5_5107" x1="6.68665" y1="4.38069" x2="9.43047" y2="7.1245" gradientUnits="userSpaceOnUse">
<stop stop-color="#FFD945"/>
<stop offset="0.3043" stop-color="#FFCD3E"/>
<stop offset="0.8558" stop-color="#FFAD2B"/>
<stop offset="1" stop-color="#FFA325"/>
</linearGradient>
<linearGradient id="paint9_linear_5_5107" x1="11.7205" y1="4.75435" x2="14.632" y2="7.66593" gradientUnits="userSpaceOnUse">
<stop stop-color="#FF7044"/>
<stop offset="1" stop-color="#F82814"/>
</linearGradient>
<linearGradient id="paint10_linear_5_5107" x1="16.2545" y1="4.62234" x2="19.1926" y2="7.56041" gradientUnits="userSpaceOnUse">
<stop stop-color="#FFD945"/>
<stop offset="0.3043" stop-color="#FFCD3E"/>
<stop offset="0.8558" stop-color="#FFAD2B"/>
<stop offset="1" stop-color="#FFA325"/>
</linearGradient>
<linearGradient id="paint11_linear_5_5107" x1="20.3655" y1="4.07335" x2="24.1039" y2="7.81179" gradientUnits="userSpaceOnUse">
<stop stop-color="#FF7044"/>
<stop offset="1" stop-color="#F82814"/>
</linearGradient>
<linearGradient id="paint12_linear_5_5107" x1="3.4269" y1="1.12381" x2="6.1716" y2="3.86852" gradientUnits="userSpaceOnUse">
<stop stop-color="#FF7044"/>
<stop offset="1" stop-color="#F82814"/>
</linearGradient>
<linearGradient id="paint13_linear_5_5107" x1="7.67178" y1="1.20551" x2="9.81004" y2="4.17143" gradientUnits="userSpaceOnUse">
<stop stop-color="#FFD945"/>
<stop offset="0.3043" stop-color="#FFCD3E"/>
<stop offset="0.8558" stop-color="#FFAD2B"/>
<stop offset="1" stop-color="#FFA325"/>
</linearGradient>
<linearGradient id="paint14_linear_5_5107" x1="10.7499" y1="0.598588" x2="14.6273" y2="4.476" gradientUnits="userSpaceOnUse">
<stop stop-color="#FF7044"/>
<stop offset="1" stop-color="#F82814"/>
</linearGradient>
<linearGradient id="paint15_linear_5_5107" x1="15.2342" y1="0.803859" x2="17.9631" y2="4.60226" gradientUnits="userSpaceOnUse">
<stop stop-color="#FFD945"/>
<stop offset="0.3043" stop-color="#FFCD3E"/>
<stop offset="0.8558" stop-color="#FFAD2B"/>
<stop offset="1" stop-color="#FFA325"/>
</linearGradient>
<linearGradient id="paint16_linear_5_5107" x1="18.8245" y1="0.924847" x2="23.6711" y2="5.77144" gradientUnits="userSpaceOnUse">
<stop stop-color="#FF7044"/>
<stop offset="1" stop-color="#F82814"/>
</linearGradient>
<linearGradient id="paint17_linear_5_5107" x1="17.4862" y1="10.5145" x2="14.0106" y2="18.2534" gradientUnits="userSpaceOnUse">
<stop stop-color="#FF7044"/>
<stop offset="1" stop-color="#F82814"/>
</linearGradient>
<linearGradient id="paint18_linear_5_5107" x1="12.341" y1="12.822" x2="8.61627" y2="11.2628" gradientUnits="userSpaceOnUse">
<stop stop-color="#FF7044" stop-opacity="0"/>
<stop offset="1" stop-color="#FFA325"/>
</linearGradient>
<linearGradient id="paint19_linear_5_5107" x1="15.6632" y1="13.2097" x2="9.44814" y2="12.1053" gradientUnits="userSpaceOnUse">
<stop stop-color="#F82814" stop-opacity="0"/>
<stop offset="1" stop-color="#C0272D"/>
</linearGradient>
<linearGradient id="paint20_linear_5_5107" x1="10.6916" y1="8.0816" x2="13.9413" y2="8.0816" gradientUnits="userSpaceOnUse">
<stop stop-color="#8A7889"/>
<stop offset="1" stop-color="#6E566E"/>
</linearGradient>
<linearGradient id="paint21_linear_5_5107" x1="13.7558" y1="7.60736" x2="11.8519" y2="6.58397" gradientUnits="userSpaceOnUse">
<stop stop-color="#6E566E" stop-opacity="0"/>
<stop offset="0.8228" stop-color="#59465A" stop-opacity="0.866"/>
<stop offset="1" stop-color="#564357"/>
</linearGradient>
<linearGradient id="paint22_linear_5_5107" x1="11.5746" y1="9.72293" x2="13.7179" y2="10.5281" gradientUnits="userSpaceOnUse">
<stop stop-color="#6E566E" stop-opacity="0"/>
<stop offset="0.8228" stop-color="#59465A" stop-opacity="0.866"/>
<stop offset="1" stop-color="#564357"/>
</linearGradient>
<linearGradient id="paint23_linear_5_5107" x1="14.2422" y1="14.281" x2="13.8309" y2="10.4401" gradientUnits="userSpaceOnUse">
<stop stop-color="#F82814" stop-opacity="0"/>
<stop offset="1" stop-color="#C0272D"/>
</linearGradient>
<linearGradient id="paint24_linear_5_5107" x1="15.7068" y1="16.7929" x2="15.3469" y2="11.8801" gradientUnits="userSpaceOnUse">
<stop stop-color="#F82814" stop-opacity="0"/>
<stop offset="1" stop-color="#C0272D"/>
</linearGradient>
<linearGradient id="paint25_linear_5_5107" x1="17.3457" y1="17.9824" x2="16.7491" y2="14.1227" gradientUnits="userSpaceOnUse">
<stop stop-color="#F82814" stop-opacity="0"/>
<stop offset="1" stop-color="#C0272D"/>
</linearGradient>
<linearGradient id="paint26_linear_5_5107" x1="19.1699" y1="18.9502" x2="18.6119" y2="16.1598" gradientUnits="userSpaceOnUse">
<stop stop-color="#F82814" stop-opacity="0"/>
<stop offset="1" stop-color="#C0272D"/>
</linearGradient>
<linearGradient id="paint27_linear_5_5107" x1="14.9256" y1="11.1838" x2="13.6232" y2="12.4863" gradientUnits="userSpaceOnUse">
<stop stop-color="#F8F6FB"/>
<stop offset="1" stop-color="#EFDCFB"/>
</linearGradient>
<linearGradient id="paint28_linear_5_5107" x1="16.6103" y1="12.8707" x2="15.3079" y2="14.1731" gradientUnits="userSpaceOnUse">
<stop stop-color="#F8F6FB"/>
<stop offset="1" stop-color="#EFDCFB"/>
</linearGradient>
<linearGradient id="paint29_linear_5_5107" x1="18.2975" y1="14.5577" x2="16.9951" y2="15.8601" gradientUnits="userSpaceOnUse">
<stop stop-color="#F8F6FB"/>
<stop offset="1" stop-color="#EFDCFB"/>
</linearGradient>
<linearGradient id="paint30_linear_5_5107" x1="19.8367" y1="16.0942" x2="18.5343" y2="17.3966" gradientUnits="userSpaceOnUse">
<stop stop-color="#F8F6FB"/>
<stop offset="1" stop-color="#EFDCFB"/>
</linearGradient>
<clipPath id="clip0_5_5107">
<rect width="24" height="24" fill="white" transform="translate(0.580017)"/>
</clipPath>
</defs>
</svg>
