<svg width="108" height="28" viewBox="0 0 108 28" fill="none" xmlns="http://www.w3.org/2000/svg">
<path d="M3.64 21.42C3.06133 21.42 2.44533 21.364 1.792 21.252C1.15733 21.14 0.672 21 0.336 20.832L0.336 17.164C0.616 17.2947 0.970667 17.3973 1.4 17.472C1.82933 17.5467 2.25867 17.584 2.688 17.584C3.528 17.584 4.15333 17.388 4.564 16.996C4.97467 16.604 5.18 15.988 5.18 15.148V1.428H9.436V15.54C9.436 17.3507 8.932 18.788 7.924 19.852C6.916 20.8973 5.488 21.42 3.64 21.42ZM14.6081 5.488C13.9548 5.488 13.4041 5.27333 12.9561 4.844C12.5081 4.41467 12.2841 3.87333 12.2841 3.22C12.2841 2.58533 12.5081 2.05333 12.9561 1.624C13.4041 1.176 13.9548 0.951999 14.6081 0.951999C15.2615 0.951999 15.8121 1.176 16.2601 1.624C16.7081 2.05333 16.9321 2.58533 16.9321 3.22C16.9321 3.87333 16.7081 4.41467 16.2601 4.844C15.8121 5.27333 15.2615 5.488 14.6081 5.488ZM12.4801 7.56H16.7361V21H12.4801V7.56ZM27.055 27.44C26.159 27.44 25.2537 27.356 24.339 27.188C23.443 27.02 22.687 26.796 22.071 26.516V23.408C23.5083 24.0427 25.1697 24.36 27.055 24.36C28.567 24.36 29.6497 24.052 30.303 23.436C30.9563 22.82 31.283 21.896 31.283 20.664V19.824C30.7043 20.3467 29.995 20.7387 29.155 21C28.315 21.28 27.419 21.42 26.467 21.42C25.0857 21.42 23.8443 21.1213 22.743 20.524C21.6603 19.908 20.811 19.0587 20.195 17.976C19.579 16.8933 19.271 15.6613 19.271 14.28C19.271 12.8613 19.5697 11.6107 20.167 10.528C20.783 9.44533 21.623 8.61467 22.687 8.036C23.7697 7.43867 25.0017 7.14 26.383 7.14C27.4283 7.14 28.3523 7.28933 29.155 7.588C29.9577 7.88667 30.7137 8.36267 31.423 9.016V7.56H35.511V20.132C35.511 22.4653 34.8203 24.2667 33.439 25.536C32.0577 26.8053 29.9297 27.44 27.055 27.44ZM27.475 18.144C28.3523 18.144 29.1363 17.9107 29.827 17.444C30.5363 16.9587 31.0217 16.324 31.283 15.54V13.02C30.9843 12.236 30.4897 11.6107 29.799 11.144C29.127 10.6773 28.3523 10.444 27.475 10.444C26.3363 10.444 25.403 10.7893 24.675 11.48C23.9657 12.1707 23.611 13.0947 23.611 14.252C23.611 15.428 23.9657 16.3707 24.675 17.08C25.403 17.7893 26.3363 18.144 27.475 18.144ZM38.4521 7.56H42.4001V9.184C42.9788 8.53067 43.6508 8.02667 44.4161 7.672C45.1814 7.31733 45.9748 7.14 46.7961 7.14C47.8228 7.14 48.6441 7.308 49.2601 7.644C49.8761 7.96133 50.3614 8.43733 50.7161 9.072C51.2948 8.456 51.9948 7.98 52.8161 7.644C53.6561 7.308 54.4868 7.14 55.3081 7.14C57.0254 7.14 58.2481 7.57867 58.9761 8.456C59.7228 9.33333 60.0961 10.6027 60.0961 12.264V21H56.0641V12.852C56.0641 11.9933 55.8961 11.3773 55.5601 11.004C55.2241 10.6307 54.6828 10.444 53.9361 10.444C52.8908 10.444 52.0508 10.8547 51.4161 11.676C51.4534 12.2733 51.4721 12.7587 51.4721 13.132V21H47.4121V12.712C47.4121 11.8907 47.2628 11.312 46.9641 10.976C46.6841 10.6213 46.1894 10.444 45.4801 10.444C44.3788 10.444 43.3988 11.0693 42.5401 12.32V21H38.4521V7.56ZM67.4993 21.42C65.8566 21.42 64.5126 21.0093 63.4673 20.188C62.4406 19.348 61.9273 18.2093 61.9273 16.772C61.9273 15.2787 62.4219 14.1213 63.4113 13.3C64.4006 12.46 65.8006 12.04 67.6113 12.04C68.4139 12.04 69.1793 12.124 69.9073 12.292C70.6353 12.46 71.2793 12.6933 71.8393 12.992V12.656C71.8393 11.816 71.5406 11.2 70.9433 10.808C70.3459 10.416 69.4313 10.22 68.1993 10.22C66.5566 10.22 65.0446 10.528 63.6633 11.144V8.064C64.2606 7.80267 65.0353 7.588 65.9873 7.42C66.9393 7.23333 67.8913 7.14 68.8433 7.14C71.2699 7.14 73.0806 7.644 74.2753 8.652C75.4699 9.64133 76.0673 11.032 76.0673 12.824V21H72.0913V19.768C70.9526 20.8693 69.4219 21.42 67.4993 21.42ZM68.6473 18.62C69.3379 18.62 69.9633 18.4893 70.5233 18.228C71.0833 17.9667 71.5219 17.6027 71.8393 17.136V15.792C70.8873 15.1573 69.8419 14.84 68.7033 14.84C67.9193 14.84 67.3126 15.008 66.8833 15.344C66.4726 15.6613 66.2673 16.1373 66.2673 16.772C66.2673 17.3693 66.4726 17.8267 66.8833 18.144C67.2939 18.4613 67.8819 18.62 68.6473 18.62ZM79.9022 21C79.4542 21 79.0715 20.8507 78.7542 20.552C78.4555 20.2533 78.3062 19.88 78.3062 19.432C78.3062 18.984 78.4648 18.6013 78.7822 18.284C79.0995 17.9667 79.4728 17.808 79.9022 17.808C80.3502 17.808 80.7328 17.9667 81.0502 18.284C81.3675 18.6013 81.5262 18.984 81.5262 19.432C81.5262 19.88 81.3675 20.2533 81.0502 20.552C80.7328 20.8507 80.3502 21 79.9022 21Z" fill="white"/>
<path d="M86.1941 5.488C85.5407 5.488 84.9901 5.27333 84.5421 4.844C84.0941 4.41467 83.8701 3.87333 83.8701 3.22C83.8701 2.58533 84.0941 2.05333 84.5421 1.624C84.9901 1.176 85.5407 0.951999 86.1941 0.951999C86.8474 0.951999 87.3981 1.176 87.8461 1.624C88.2941 2.05333 88.5181 2.58533 88.5181 3.22C88.5181 3.87333 88.2941 4.41467 87.8461 4.844C87.3981 5.27333 86.8474 5.488 86.1941 5.488ZM84.0661 7.56H88.3221V21H84.0661V7.56ZM98.9489 21.42C97.3249 21.42 95.8969 21.1307 94.6649 20.552C93.4516 19.9547 92.5089 19.124 91.8369 18.06C91.1836 16.9773 90.8569 15.7173 90.8569 14.28C90.8569 12.88 91.1836 11.6387 91.8369 10.556C92.5089 9.47333 93.4516 8.63333 94.6649 8.036C95.8969 7.43867 97.3249 7.14 98.9489 7.14C100.554 7.14 101.964 7.43867 103.177 8.036C104.409 8.63333 105.352 9.47333 106.005 10.556C106.677 11.6387 107.013 12.88 107.013 14.28C107.013 15.7173 106.677 16.9773 106.005 18.06C105.352 19.124 104.418 19.9547 103.205 20.552C101.992 21.1307 100.573 21.42 98.9489 21.42ZM98.9489 18.116C100.088 18.116 100.993 17.7707 101.665 17.08C102.337 16.3707 102.673 15.4373 102.673 14.28C102.673 13.0853 102.337 12.152 101.665 11.48C101.012 10.7893 100.106 10.444 98.9489 10.444C97.7916 10.444 96.8769 10.7893 96.2049 11.48C95.5329 12.152 95.1969 13.0853 95.1969 14.28C95.1969 15.4373 95.5329 16.3707 96.2049 17.08C96.8956 17.7707 97.8103 18.116 98.9489 18.116Z" fill="#8643FF"/>
</svg>
